<svg width="36" height="36" viewBox="0 0 36 36" fill="none" xmlns="http://www.w3.org/2000/svg">
<circle cx="18" cy="18" r="18" fill="#0B1E2F"/>
<path fill-rule="evenodd" clip-rule="evenodd" d="M10.8541 14C9.83011 14 9 14.8301 9 15.8541V20.8571C9 22.8619 9 23.8643 9.45983 24.5961C9.69961 24.9777 10.0223 25.3004 10.4039 25.5402C11.1357 26 12.1381 26 14.1429 26H21.8571C23.8619 26 24.8643 26 25.5961 25.5402C25.9777 25.3004 26.3004 24.9777 26.5402 24.5961C27 23.8643 27 22.8619 27 20.8571V15.8541C27 14.8301 26.1699 14 25.1459 14C24.4436 14 23.8016 13.6032 23.4875 12.9751L22.6667 11.3333L22.6666 11.3333C22.5567 11.1134 22.5017 11.0035 22.4394 10.9078C22.1141 10.4088 21.5833 10.0808 20.9915 10.013C20.8781 10 20.7552 10 20.5093 10H15.4907C15.2448 10 15.1219 10 15.0085 10.013C14.4167 10.0808 13.8859 10.4088 13.5606 10.9078C13.4983 11.0035 13.4433 11.1134 13.3333 11.3333L12.5125 12.9751C12.1984 13.6032 11.5564 14 10.8541 14ZM20 19C20 20.1046 19.1046 21 18 21C16.8954 21 16 20.1046 16 19C16 17.8954 16.8954 17 18 17C19.1046 17 20 17.8954 20 19ZM22 19C22 21.2091 20.2091 23 18 23C15.7909 23 14 21.2091 14 19C14 16.7909 15.7909 15 18 15C20.2091 15 22 16.7909 22 19Z" fill="#E7F3FF"/>
</svg>
