<svg width="21" height="20" viewBox="0 0 21 20" fill="none" xmlns="http://www.w3.org/2000/svg">
<path d="M17.7656 13.8614V4.83068C17.7656 4.51232 17.4441 4.29463 17.1485 4.41287L13.7341 5.77864C13.6462 5.81377 13.5496 5.82033 13.4578 5.79739L7.07346 4.20131C6.98169 4.17836 6.88502 4.18492 6.79719 4.22006L3.0485 5.71953C2.87765 5.78787 2.76562 5.95334 2.76562 6.13735V15.168C2.76562 15.4864 3.08716 15.7041 3.38275 15.5858L6.79719 14.2201C6.88502 14.1849 6.98169 14.1784 7.07346 14.2013L13.4578 15.7974C13.5496 15.8203 13.6462 15.8138 13.7341 15.7786L17.4828 14.2792C17.6536 14.2108 17.7656 14.0454 17.7656 13.8614Z" stroke="#0B1E2F" stroke-width="2" stroke-linejoin="round"/>
<path d="M13.5986 15.834V5.83398" stroke="#0B1E2F" stroke-width="2"/>
<path d="M6.93262 14.166L6.93262 4.16602" stroke="#0B1E2F" stroke-width="2"/>
</svg>
