<svg width="21" height="20" viewBox="0 0 21 20" fill="none" xmlns="http://www.w3.org/2000/svg">
<circle cx="10.266" cy="6.66732" r="2.33333" stroke="#0B1E2F" stroke-width="2" stroke-linecap="round"/>
<path d="M13.1336 6.75C13.3325 6.40547 13.6601 6.15408 14.0444 6.05111C14.4287 5.94815 14.8381 6.00205 15.1826 6.20096C15.5271 6.39987 15.7785 6.7275 15.8815 7.11177C15.9845 7.49604 15.9306 7.90547 15.7317 8.25C15.5327 8.59453 15.2051 8.84592 14.8208 8.94889C14.4366 9.05185 14.0271 8.99795 13.6826 8.79904C13.3381 8.60013 13.0867 8.2725 12.9837 7.88823C12.8808 7.50396 12.9347 7.09453 13.1336 6.75L13.1336 6.75Z" stroke="#0B1E2F" stroke-width="2"/>
<path d="M4.79959 6.75C4.99851 6.40547 5.32614 6.15408 5.7104 6.05111C6.09467 5.94815 6.50411 6.00205 6.84863 6.20096C7.19316 6.39987 7.44456 6.7275 7.54752 7.11177C7.65049 7.49604 7.59658 7.90547 7.39767 8.25C7.19876 8.59453 6.87113 8.84592 6.48686 8.94889C6.10259 9.05185 5.69316 8.99795 5.34863 8.79904C5.00411 8.60013 4.75271 8.2725 4.64974 7.88823C4.54678 7.50396 4.60068 7.09453 4.79959 6.75L4.79959 6.75Z" stroke="#0B1E2F" stroke-width="2"/>
<path d="M14.3208 14.9993L13.3214 15.0344L13.3553 15.9993H14.3208V14.9993ZM17.4664 13.9099L18.3962 13.5418L18.3962 13.5418L17.4664 13.9099ZM12.583 12.2581L11.9782 11.4618L10.8216 12.3403L12.0549 13.1073L12.583 12.2581ZM14.3 14.8437L13.3258 15.0695L13.3258 15.0695L14.3 14.8437ZM16.6329 13.9993H14.3208V15.9993H16.6329V13.9993ZM16.5366 14.278C16.5273 14.2544 16.5183 14.2102 16.527 14.1563C16.5353 14.1051 16.556 14.0666 16.5753 14.0422C16.6115 13.9966 16.6408 13.9993 16.6329 13.9993V15.9993C17.2265 15.9993 17.7832 15.737 18.1412 15.2864C18.5117 14.82 18.6459 14.1727 18.3962 13.5418L16.5366 14.278ZM14.4323 12.666C15.623 12.666 16.212 13.4581 16.5366 14.278L18.3962 13.5418C17.9509 12.4169 16.8443 10.666 14.4323 10.666V12.666ZM13.1879 13.0545C13.4797 12.8328 13.871 12.666 14.4323 12.666V10.666C13.4271 10.666 12.6124 10.9801 11.9782 11.4618L13.1879 13.0545ZM12.0549 13.1073C12.8119 13.5781 13.1666 14.3824 13.3258 15.0695L15.2742 14.618C15.0605 13.6961 14.5172 12.2834 13.1111 11.409L12.0549 13.1073ZM13.3258 15.0695C13.3238 15.0608 13.3219 15.049 13.3214 15.0344L15.3202 14.9643C15.3161 14.8481 15.3007 14.7323 15.2742 14.618L13.3258 15.0695Z" fill="#0B1E2F"/>
<path d="M7.94825 12.2581L8.47638 13.1073L9.70969 12.3402L8.55311 11.4618L7.94825 12.2581ZM3.06488 13.9099L3.99467 14.278L3.99467 14.278L3.06488 13.9099ZM6.21044 14.9993V15.9993H7.17599L7.20982 15.0344L6.21044 14.9993ZM6.23126 14.8437L5.25707 14.618L5.25707 14.618L6.23126 14.8437ZM6.09895 12.666C6.66031 12.666 7.05154 12.8328 7.3434 13.0545L8.55311 11.4618C7.91891 10.9801 7.10417 10.666 6.09895 10.666V12.666ZM3.99467 14.278C4.31925 13.4581 4.90823 12.666 6.09895 12.666V10.666C3.68694 10.666 2.58041 12.4169 2.13508 13.5418L3.99467 14.278ZM3.89839 13.9993C3.8905 13.9993 3.91975 13.9966 3.95599 14.0422C3.9753 14.0666 3.996 14.1051 4.00428 14.1563C4.01301 14.2102 4.00399 14.2544 3.99467 14.278L2.13508 13.5418C1.88532 14.1727 2.01952 14.82 2.3901 15.2864C2.74807 15.737 3.30478 15.9993 3.89839 15.9993V13.9993ZM6.21044 13.9993H3.89839V15.9993H6.21044V13.9993ZM7.20982 15.0344C7.20931 15.049 7.20744 15.0608 7.20544 15.0695L5.25707 14.618C5.23058 14.7323 5.21512 14.8481 5.21105 14.9643L7.20982 15.0344ZM7.20544 15.0695C7.36465 14.3824 7.71934 13.5781 8.47638 13.1073L7.42013 11.4089C6.01405 12.2834 5.4707 13.6961 5.25707 14.618L7.20544 15.0695Z" fill="#0B1E2F"/>
<path d="M10.2653 11.666C13.1124 11.666 14.0141 13.6115 14.2996 14.8437C14.4243 15.3818 13.9843 15.8327 13.432 15.8327H7.09863C6.54635 15.8327 6.10629 15.3818 6.23097 14.8437C6.5165 13.6115 7.41815 11.666 10.2653 11.666Z" stroke="#0B1E2F" stroke-width="2" stroke-linecap="round"/>
</svg>
