<svg width="20" height="20" viewBox="0 0 20 20" fill="none" xmlns="http://www.w3.org/2000/svg">
<path d="M3.70857 11.5908L9.50242 17.0335C9.64756 17.1699 9.72014 17.2381 9.79906 17.2726C9.92694 17.3286 10.0724 17.3286 10.2003 17.2726C10.2792 17.2381 10.3518 17.1699 10.4969 17.0335L16.2908 11.5908C17.9209 10.0595 18.1189 7.53948 16.7479 5.77237L16.4901 5.4401C14.8499 3.32613 11.5577 3.68066 10.4052 6.09536C10.2424 6.43645 9.75691 6.43645 9.59412 6.09536C8.44165 3.68066 5.14944 3.32614 3.50929 5.4401L3.2515 5.77237C1.88046 7.53948 2.07842 10.0595 3.70857 11.5908Z" stroke="#0B1E2F" stroke-width="2"/>
</svg>
