<svg width="21" height="20" viewBox="0 0 21 20" fill="none" xmlns="http://www.w3.org/2000/svg">
<mask id="mask0_247_2829" style="mask-type:alpha" maskUnits="userSpaceOnUse" x="0" y="0" width="21" height="20">
<rect x="0.265625" width="20" height="20" fill="#D9D9D9"/>
</mask>
<g mask="url(#mask0_247_2829)">
<path d="M8.26562 9.5V8.5H12.2656V9.5H8.26562ZM8.76562 11.5V10.5H11.7656V11.5H8.76562ZM8.26562 18L7.26562 14C6.65451 13.5417 6.1684 12.9688 5.80729 12.2812C5.44618 11.5938 5.26562 10.8333 5.26562 10C5.26562 9.16667 5.44965 8.40625 5.81771 7.71875C6.18576 7.03125 6.68229 6.45833 7.30729 6L8.26562 2H12.2656L13.224 6C13.849 6.45833 14.3455 7.03125 14.7135 7.71875C15.0816 8.40625 15.2656 9.16667 15.2656 10C15.2656 10.8333 15.0851 11.5938 14.724 12.2812C14.3628 12.9688 13.8767 13.5417 13.2656 14L12.2656 18H8.26562ZM10.2698 13.5C11.2392 13.5 12.0642 13.1583 12.7448 12.475C13.4253 11.7917 13.7656 10.9653 13.7656 9.99588C13.7656 9.0264 13.424 8.20139 12.7407 7.52083C12.0574 6.84028 11.231 6.5 10.2615 6.5C9.29203 6.5 8.46701 6.84165 7.78646 7.52496C7.1059 8.20826 6.76562 9.03465 6.76562 10.0041C6.76562 10.9736 7.10728 11.7986 7.79058 12.4792C8.47389 13.1597 9.30028 13.5 10.2698 13.5Z" fill="#1C1B1F"/>
</g>
</svg>
