<svg width="12" height="11" viewBox="0 0 12 11" fill="none" xmlns="http://www.w3.org/2000/svg">
<path d="M6.00127 10.315C5.36185 10.315 4.76273 10.1941 4.20391 9.95235C3.64508 9.71057 3.15778 9.38179 2.74198 8.966C2.3262 8.55021 1.99742 8.06291 1.75564 7.50408C1.51385 6.94526 1.39295 6.34614 1.39295 5.70672C1.39295 5.0673 1.51385 4.46817 1.75564 3.90935C1.99742 3.35053 2.3262 2.86322 2.74198 2.44743C3.15778 2.03165 3.64508 1.70287 4.20391 1.46109C4.76273 1.21929 5.36185 1.0984 6.00127 1.0984C6.64069 1.0984 7.23982 1.21929 7.79864 1.46109C8.35746 1.70287 8.84477 2.03165 9.26056 2.44743C9.67634 2.86322 10.0051 3.35053 10.2469 3.90935C10.4887 4.46817 10.6096 5.0673 10.6096 5.70672C10.6096 6.34614 10.4887 6.94526 10.2469 7.50408C10.0051 8.06291 9.67634 8.55021 9.26056 8.966C8.84477 9.38179 8.35746 9.71057 7.79864 9.95235C7.23982 10.1941 6.64069 10.315 6.00127 10.315ZM7.56058 7.58908L8.10238 7.04728L6.38042 5.3253V2.90672H5.62212V5.65063L7.56058 7.58908ZM2.54727 -0.0020752L3.08908 0.53974L0.834295 2.79453L0.29248 2.25271L2.54727 -0.0020752ZM9.45528 -0.0020752L11.7101 2.25271L11.1683 2.79453L8.91346 0.53974L9.45528 -0.0020752ZM5.99803 9.55672C7.06589 9.55672 7.97507 9.18255 8.72556 8.43422C9.47603 7.6859 9.85127 6.77781 9.85127 5.70995C9.85127 4.64209 9.47711 3.73292 8.72878 2.98243C7.98046 2.23196 7.07237 1.85672 6.00451 1.85672C4.93665 1.85672 4.02748 2.23088 3.27699 2.97921C2.52651 3.72753 2.15127 4.63562 2.15127 5.70348C2.15127 6.77134 2.52544 7.68051 3.27377 8.431C4.02209 9.18148 4.93018 9.55672 5.99803 9.55672Z" fill="#FD4C36"/>
</svg>
