<svg width="21" height="20" viewBox="0 0 21 20" fill="none" xmlns="http://www.w3.org/2000/svg">
<path d="M11.5079 2.5H8.03158C6.46023 2.5 5.67455 2.5 5.1864 2.98816C4.69824 3.47631 4.69824 4.26198 4.69824 5.83333V14.1667C4.69824 15.738 4.69824 16.5237 5.1864 17.0118C5.67455 17.5 6.46023 17.5 8.03158 17.5H13.0316C14.6029 17.5 15.3886 17.5 15.8768 17.0118C16.3649 16.5237 16.3649 15.738 16.3649 14.1667V7.35702C16.3649 7.0164 16.3649 6.84608 16.3015 6.69294C16.238 6.5398 16.1176 6.41937 15.8768 6.17851L12.6864 2.98816C12.4455 2.7473 12.3251 2.62687 12.172 2.56343C12.0188 2.5 11.8485 2.5 11.5079 2.5Z" stroke="#0B1E2F" stroke-width="2"/>
<path d="M8.03125 10.834L13.0312 10.834" stroke="#0B1E2F" stroke-width="2" stroke-linecap="round"/>
<path d="M8.03125 14.166L11.3646 14.166" stroke="#0B1E2F" stroke-width="2" stroke-linecap="round"/>
<path d="M11.3643 2.5V5.83333C11.3643 6.61901 11.3643 7.01184 11.6083 7.25592C11.8524 7.5 12.2453 7.5 13.0309 7.5H16.3643" stroke="#0B1E2F" stroke-width="2"/>
</svg>
