<svg width="25" height="24" viewBox="0 0 25 24" fill="none" xmlns="http://www.w3.org/2000/svg">
<path d="M12.5343 5.79004C8.80089 5.79004 5.79004 8.19869 5.79004 11.1228C5.79004 13.0209 7.04255 14.6828 8.92132 15.6319L8.28543 18.0068C8.27344 18.0424 8.2716 18.0806 8.2801 18.1172C8.28861 18.1538 8.30714 18.1873 8.3336 18.214C8.37219 18.248 8.42185 18.2668 8.47331 18.2669C8.51597 18.2635 8.55645 18.2467 8.58892 18.2188L11.3252 16.3738C11.7291 16.4295 12.1362 16.4584 12.544 16.4604C16.2726 16.4604 19.2883 14.0518 19.2883 11.1228C19.2883 8.19387 16.263 5.79004 12.5343 5.79004Z" fill="#392020"/>
<path d="M8.15043 10.2801H7.41338C7.32203 10.2827 7.2318 10.2593 7.15324 10.2126C7.11836 10.1908 7.08838 10.1619 7.06517 10.1279C7.04195 10.0939 7.02602 10.0555 7.01836 10.0151C7.01602 9.98945 7.01602 9.96369 7.01836 9.93805C7.01607 9.89008 7.02538 9.84223 7.04551 9.79862C7.06563 9.75502 7.09598 9.71692 7.13397 9.68754C7.21796 9.62672 7.31933 9.59459 7.42301 9.59598H9.64381C9.73589 9.59274 9.82673 9.61799 9.90395 9.66825C9.93965 9.68914 9.97027 9.71772 9.9936 9.75187C10.0169 9.78603 10.0324 9.82493 10.0388 9.86578C10.0412 9.88981 10.0412 9.91402 10.0388 9.93805C10.0411 9.98672 10.0318 10.0352 10.0117 10.0796C9.99162 10.124 9.9613 10.1629 9.92322 10.1933C9.84128 10.2541 9.74089 10.2847 9.639 10.2801H8.92603V12.814C8.92893 12.868 8.92057 12.922 8.9015 12.9725C8.88242 13.0231 8.85305 13.0692 8.81523 13.1079C8.77897 13.1448 8.73537 13.1737 8.68725 13.1928C8.63913 13.2119 8.58755 13.2207 8.53582 13.2186C8.44535 13.2212 8.3568 13.1923 8.28532 13.1368C8.21727 13.0825 8.17109 13.0055 8.15525 12.92C8.15049 12.8848 8.15049 12.8492 8.15525 12.814L8.15043 10.2801Z" fill="#FEE500"/>
<path d="M10.2514 9.78318C10.2726 9.70391 10.3223 9.63526 10.3911 9.59048C10.4643 9.54895 10.5478 9.52892 10.6319 9.53267H10.815C10.9043 9.52947 10.9927 9.55116 11.0703 9.5953C11.1526 9.65064 11.2111 9.73489 11.2341 9.83135L12.1976 12.5532C12.2226 12.6242 12.2435 12.6966 12.2602 12.77C12.2619 12.8005 12.2619 12.831 12.2602 12.8615C12.2618 12.9084 12.2532 12.9552 12.2349 12.9984C12.2166 13.0417 12.1891 13.0805 12.1542 13.112C12.1205 13.1466 12.08 13.1739 12.0352 13.1921C11.9904 13.2103 11.9424 13.2191 11.8941 13.218C11.8198 13.2253 11.7452 13.2075 11.6822 13.1673C11.6193 13.1271 11.5718 13.0669 11.5472 12.9964L11.3449 12.4039H10.0779L9.87562 12.9964C9.85169 13.0683 9.80356 13.1297 9.73943 13.1701C9.67531 13.2105 9.59916 13.2274 9.52395 13.218C9.44249 13.2201 9.3627 13.1946 9.29754 13.1457C9.23405 13.0952 9.19121 13.0233 9.1771 12.9434C9.17455 12.9162 9.17455 12.8887 9.1771 12.8615C9.16883 12.8137 9.16883 12.7648 9.1771 12.717C9.1771 12.664 9.21082 12.6062 9.23009 12.5532L10.2514 9.78318ZM10.7331 10.4143L10.2755 11.8595H11.1859L10.7331 10.4143Z" fill="#FEE500"/>
<path d="M12.3705 9.93733C12.3656 9.82922 12.4037 9.72358 12.4765 9.64348C12.5135 9.60616 12.5579 9.577 12.6069 9.55791C12.6558 9.53883 12.7083 9.5302 12.7607 9.53263C12.851 9.53157 12.939 9.56039 13.0112 9.61454C13.0782 9.67105 13.1226 9.74965 13.1365 9.83612C13.1412 9.86968 13.1412 9.90377 13.1365 9.93733V12.4713H14.4613C14.5531 12.4701 14.6434 12.4951 14.7214 12.5435C14.7565 12.5651 14.7866 12.5939 14.8099 12.6279C14.8331 12.6619 14.8489 12.7005 14.8563 12.741C14.8563 12.741 14.8563 12.7892 14.8563 12.8133C14.8586 12.8613 14.8493 12.909 14.8291 12.9526C14.809 12.9963 14.7787 13.0344 14.7407 13.0638C14.6567 13.1246 14.5553 13.1567 14.4516 13.1553H12.8234C12.7197 13.162 12.6166 13.135 12.5295 13.0783C12.4516 13.02 12.3997 12.9335 12.385 12.8374C12.3815 12.7845 12.3815 12.7313 12.385 12.6784L12.3705 9.93733Z" fill="#FEE500"/>
<path d="M14.9426 9.93796C14.9397 9.83017 14.9776 9.72525 15.0486 9.64411C15.1208 9.5785 15.2134 9.53976 15.3108 9.5345C15.4082 9.52923 15.5045 9.55774 15.5833 9.61518C15.6517 9.67119 15.6978 9.74975 15.7134 9.83676C15.7158 9.87044 15.7158 9.90428 15.7134 9.93796V11.1182L16.9322 9.7115C16.9792 9.66351 17.029 9.61851 17.0815 9.57666C17.131 9.5472 17.1878 9.53213 17.2453 9.53326C17.3295 9.5328 17.4119 9.55802 17.4814 9.60553C17.5141 9.62759 17.5421 9.65605 17.5636 9.68916C17.5851 9.72226 17.5998 9.75935 17.6066 9.79824C17.6086 9.80778 17.6086 9.81764 17.6066 9.82717C17.6043 9.83829 17.6043 9.84975 17.6066 9.86087C17.6065 9.91156 17.5932 9.96137 17.5681 10.0054C17.5425 10.052 17.5118 10.0956 17.4766 10.1354L16.6769 11.0122L17.6403 12.5056V12.5538C17.6904 12.6228 17.7294 12.6992 17.756 12.7802V12.8043C17.7615 12.8601 17.7535 12.9164 17.7325 12.9685C17.7115 13.0205 17.6783 13.0666 17.6355 13.1029C17.5552 13.1637 17.4568 13.1959 17.3561 13.1945C17.2892 13.1973 17.2227 13.1823 17.1634 13.1511C17.0993 13.1081 17.0464 13.0503 17.0093 12.9825L16.1132 11.5373L15.6845 11.9853V12.7898C15.6874 12.8976 15.6495 13.0025 15.5785 13.0837C15.5404 13.1209 15.4952 13.1499 15.4455 13.169C15.3958 13.188 15.3427 13.1967 15.2895 13.1945C15.2006 13.1964 15.1138 13.1674 15.0438 13.1126C14.9757 13.0583 14.9296 12.9814 14.9137 12.8958C14.909 12.8607 14.909 12.825 14.9137 12.7898L14.9426 9.93796Z" fill="#FEE500"/>
</svg>
