<svg width="16" height="16" viewBox="0 0 16 16" fill="none" xmlns="http://www.w3.org/2000/svg">
<path d="M14.6836 15.9667L10.1919 11.475C9.73358 11.8417 9.20649 12.1319 8.61066 12.3458C8.01483 12.5597 7.3808 12.6667 6.70858 12.6667C5.0433 12.6667 3.63392 12.0899 2.48045 10.9365C1.32698 9.78299 0.750244 8.37361 0.750244 6.70833C0.750244 5.04306 1.32698 3.63368 2.48045 2.48021C3.63392 1.32674 5.0433 0.75 6.70858 0.75C8.37386 0.75 9.78323 1.32674 10.9367 2.48021C12.0902 3.63368 12.6669 5.04306 12.6669 6.70833C12.6669 7.38056 12.56 8.01458 12.3461 8.61042C12.1322 9.20625 11.8419 9.73333 11.4752 10.1917L15.9669 14.6833L14.6836 15.9667ZM6.70858 10.8333C7.85441 10.8333 8.82837 10.4323 9.63045 9.63021C10.4325 8.82812 10.8336 7.85417 10.8336 6.70833C10.8336 5.5625 10.4325 4.58854 9.63045 3.78646C8.82837 2.98438 7.85441 2.58333 6.70858 2.58333C5.56274 2.58333 4.58879 2.98438 3.7867 3.78646C2.98462 4.58854 2.58358 5.5625 2.58358 6.70833C2.58358 7.85417 2.98462 8.82812 3.7867 9.63021C4.58879 10.4323 5.56274 10.8333 6.70858 10.8333Z" fill="#9BA2A8"/>
</svg>
