<svg width="21" height="20" viewBox="0 0 21 20" fill="none" xmlns="http://www.w3.org/2000/svg">
<path d="M8.03125 10.834L13.0312 10.834" stroke="#0B1E2F" stroke-width="2" stroke-linecap="round"/>
<path d="M8.03125 7.5L11.3646 7.5" stroke="#0B1E2F" stroke-width="2" stroke-linecap="round"/>
<path d="M8.03125 14.166L11.3646 14.166" stroke="#0B1E2F" stroke-width="2" stroke-linecap="round"/>
<path d="M16.3649 10.8333V11.6667C16.3649 14.3333 16.3649 15.6666 15.5767 16.5268C15.5178 16.5911 15.456 16.6529 15.3917 16.7118C14.5315 17.5 13.1982 17.5 10.5316 17.5V17.5C7.86493 17.5 6.53161 17.5 5.67147 16.7118C5.60712 16.6529 5.54538 16.5911 5.48641 16.5268C4.69824 15.6666 4.69824 14.3333 4.69824 11.6667V7.5C4.69824 5.63077 4.69824 4.69615 5.10017 4C5.36347 3.54394 5.74218 3.16523 6.19824 2.90192C6.89439 2.5 7.82901 2.5 9.69824 2.5V2.5" stroke="#0B1E2F" stroke-width="2"/>
<path d="M15.5312 2.5L15.5313 7.5" stroke="#0B1E2F" stroke-width="2" stroke-linecap="round"/>
<path d="M18.0312 5L13.0312 5" stroke="#0B1E2F" stroke-width="2" stroke-linecap="round"/>
</svg>
