<svg width="26" height="25" viewBox="0 0 26 25" fill="none" xmlns="http://www.w3.org/2000/svg">
<path fill-rule="evenodd" clip-rule="evenodd" d="M11.005 8.77157C9.48813 9.05052 6.70197 9.76596 5.27278 11.408L5.27282 11.408L5.27268 11.4082C4.08403 12.7738 4.22752 14.8445 5.59317 16.0331C6.95881 17.2218 9.02948 17.0783 10.2181 15.7126L10.2429 15.6838C11.6512 14.0374 11.9721 11.2033 12.0388 9.67139C12.0638 9.09721 11.5702 8.66762 11.005 8.77157ZM5.84509 14.0794C6.0727 14.2775 6.41781 14.2536 6.61592 14.026C6.81403 13.7984 6.79011 13.4533 6.5625 13.2552C6.3349 13.0571 5.98978 13.081 5.79168 13.3086C5.59357 13.5362 5.61748 13.8813 5.84509 14.0794Z" fill="#128CFF"/>
<path fill-rule="evenodd" clip-rule="evenodd" d="M13.8316 9.75829C13.9477 11.2962 14.3629 14.1426 15.8436 15.7383C17.0751 17.0654 19.1493 17.1429 20.4764 15.9114C21.8035 14.6798 21.881 12.6057 20.6495 11.2786C19.1687 9.68288 16.3612 9.05652 14.8362 8.82601C14.268 8.74011 13.7883 9.18519 13.8316 9.75829ZM18.5602 15.4529C18.7814 15.2477 18.7943 14.902 18.5891 14.6808C18.3838 14.4596 18.0381 14.4467 17.8169 14.6519C17.5958 14.8572 17.5828 15.2029 17.7881 15.4241C17.9933 15.6453 18.339 15.6582 18.5602 15.4529Z" fill="#128CFF"/>
</svg>
