<svg width="26" height="25" viewBox="0 0 26 25" fill="none" xmlns="http://www.w3.org/2000/svg">
<path fill-rule="evenodd" clip-rule="evenodd" d="M12.308 6.63947C11.0972 8.11617 8.72112 11.3957 8.71486 14.3986L8.71484 14.4094V14.4105C8.71544 16.7766 10.6337 18.6945 13 18.6945C15.3663 18.6945 17.2846 16.7766 17.2852 14.4105L8.71486 14.3986L17.2852 14.4099V14.4094L17.2851 14.3986C17.2789 11.3957 14.9028 8.11617 13.692 6.63948C13.3276 6.19505 12.6724 6.19504 12.308 6.63947ZM11.5717 16.5515C11.9661 16.5515 12.2859 16.2318 12.2859 15.8373C12.2859 15.4429 11.9661 15.1231 11.5717 15.1231C11.1773 15.1231 10.8575 15.4429 10.8575 15.8373C10.8575 16.2318 11.1773 16.5515 11.5717 16.5515Z" fill="#128CFF"/>
</svg>
