<svg width="26" height="25" viewBox="0 0 26 25" fill="none" xmlns="http://www.w3.org/2000/svg">
<path fill-rule="evenodd" clip-rule="evenodd" d="M12.007 11.3871C10.993 10.2392 8.96465 8.24057 6.83695 7.84284C6.82226 7.84004 6.80752 7.83734 6.79274 7.83473C5.00976 7.52035 3.3095 8.71088 2.99511 10.4939C2.68073 12.2768 3.87122 13.9771 5.65417 14.2915L5.65416 14.2916C7.79795 14.6696 10.4142 13.4738 11.769 12.7369C12.2739 12.4622 12.3875 11.8179 12.007 11.3871ZM4.79896 9.70294C4.74656 10.0001 4.94499 10.2835 5.24215 10.3359C5.53931 10.3883 5.82269 10.1899 5.87509 9.89269C5.92749 9.59553 5.72906 9.31215 5.4319 9.25975C5.13474 9.20736 4.85136 9.40578 4.79896 9.70294Z" fill="#128CFF"/>
<path fill-rule="evenodd" clip-rule="evenodd" d="M11.6167 13.2583C10.1393 13.701 7.44776 14.7159 6.20614 16.504L6.20618 16.504L6.20606 16.5042C5.17341 17.9913 5.54183 20.034 7.02894 21.0666C8.51606 22.0993 10.5587 21.7309 11.5914 20.2438L11.6129 20.2124C12.8332 18.4223 12.8432 15.5701 12.7425 14.04C12.7047 13.4665 12.1672 13.0933 11.6167 13.2583ZM7.06633 19.0971C7.31418 19.2692 7.65463 19.2078 7.82674 18.96C7.99885 18.7121 7.93744 18.3717 7.68959 18.1996C7.44174 18.0274 7.10129 18.0889 6.92918 18.3367C6.75708 18.5846 6.81848 18.925 7.06633 19.0971Z" fill="#128CFF"/>
<path fill-rule="evenodd" clip-rule="evenodd" d="M13.2563 14.0408C13.1564 15.5591 13.1657 18.3792 14.3583 20.1716C14.3744 20.1961 14.3908 20.2204 14.4076 20.2447C15.4404 21.7317 17.4831 22.1 18.9701 21.0672C20.4572 20.0345 20.8254 17.9918 19.7927 16.5047L19.7926 16.5045L19.7928 16.5044C18.551 14.7164 15.8594 13.7016 14.382 13.259C13.8315 13.0941 13.294 13.4674 13.2563 14.0408ZM17.1378 20.3439C17.3857 20.1718 17.447 19.8313 17.2749 19.5835C17.1028 19.3356 16.7623 19.2743 16.5145 19.4464C16.2667 19.6185 16.2053 19.959 16.3774 20.2068C16.5495 20.4546 16.89 20.516 17.1378 20.3439Z" fill="#128CFF"/>
<path fill-rule="evenodd" clip-rule="evenodd" d="M14.2314 12.7371C15.5862 13.474 18.2024 14.6698 20.3462 14.2918L20.3462 14.2917C22.1292 13.9773 23.3197 12.277 23.0053 10.4941C22.6909 8.71108 20.9906 7.52054 19.2077 7.83493L19.1636 7.843C17.0359 8.24066 15.0074 10.2394 13.9934 11.3873C13.6129 11.8181 13.7265 12.4624 14.2314 12.7371ZM21.5807 11.8551C21.5283 11.558 21.2449 11.3595 20.9478 11.4119C20.6506 11.4643 20.4522 11.7477 20.5046 12.0449C20.557 12.342 20.8404 12.5405 21.1375 12.4881C21.4347 12.4357 21.6331 12.1523 21.5807 11.8551Z" fill="#128CFF"/>
<path fill-rule="evenodd" clip-rule="evenodd" d="M13.6852 11.0935C14.6462 9.88725 16.2781 7.51839 16.2781 5.34152C16.2781 3.53103 14.8104 2.06333 12.9999 2.06333C11.1894 2.06333 9.72171 3.53103 9.72171 5.34152C9.72171 7.51839 11.3536 9.88725 12.3146 11.0935C12.6727 11.543 13.3271 11.543 13.6852 11.0935ZM14.0926 3.70281C13.7909 3.70281 13.5463 3.94743 13.5463 4.24917C13.5463 4.55092 13.7909 4.79554 14.0926 4.79554C14.3944 4.79554 14.639 4.55092 14.639 4.24917C14.639 3.94743 14.3944 3.70281 14.0926 3.70281Z" fill="#128CFF"/>
</svg>
