<svg width="26" height="25" viewBox="0 0 26 25" fill="none" xmlns="http://www.w3.org/2000/svg">
<path fill-rule="evenodd" clip-rule="evenodd" d="M12.5906 10.7037C12.3143 9.19717 11.6081 6.43856 9.9907 5.00002C9.97955 4.99005 9.96832 4.98013 9.95701 4.97027C8.59191 3.78099 6.52118 3.92352 5.3319 5.28861C4.14263 6.65369 4.28513 8.72438 5.65018 9.91367L5.65013 9.91373C7.29147 11.3437 10.1495 11.6693 11.6903 11.7371C12.2645 11.7624 12.6943 11.269 12.5906 10.7037ZM7.19601 5.66871C7.00519 5.90246 7.03999 6.24665 7.27374 6.43747C7.50749 6.62829 7.85167 6.59349 8.04249 6.35974C8.23331 6.12599 8.19851 5.78181 7.96476 5.59098C7.73101 5.40016 7.38683 5.43496 7.19601 5.66871Z" fill="#128CFF"/>
<path fill-rule="evenodd" clip-rule="evenodd" d="M11.4403 12.7564C9.92343 13.0354 7.13727 13.7508 5.70808 15.3928L5.70812 15.3929L5.70798 15.393C4.51933 16.7587 4.66282 18.8293 6.02847 20.018C7.39412 21.2066 9.46478 21.0632 10.6534 19.6975L10.6782 19.6687C12.0865 18.0223 12.4074 15.1882 12.4741 13.6563C12.4991 13.0821 12.0055 12.6525 11.4403 12.7564ZM6.28039 18.0643C6.508 18.2624 6.85311 18.2385 7.05122 18.0109C7.24933 17.7833 7.22541 17.4381 6.99781 17.24C6.7702 17.0419 6.42509 17.0658 6.22698 17.2935C6.02887 17.5211 6.05279 17.8662 6.28039 18.0643Z" fill="#128CFF"/>
<path fill-rule="evenodd" clip-rule="evenodd" d="M13.6353 13.6742C13.7123 15.2145 14.0551 18.0706 15.4948 19.7034L15.4949 19.7033C16.6923 21.0612 18.7638 21.1913 20.1218 19.9939C21.4797 18.7964 21.6098 16.7249 20.4124 15.3669L20.3826 15.3336C18.9344 13.7247 16.1715 13.035 14.6633 12.7677C14.0974 12.6674 13.6066 13.1002 13.6353 13.6742ZM18.2178 19.4872C18.4441 19.2877 18.4658 18.9424 18.2662 18.7161C18.0666 18.4898 17.7214 18.4681 17.495 18.6676C17.2687 18.8672 17.247 19.2125 17.4466 19.4388C17.6462 19.6651 17.9914 19.6868 18.2178 19.4872Z" fill="#128CFF"/>
<path fill-rule="evenodd" clip-rule="evenodd" d="M14.3825 11.8352C15.9215 11.7353 18.7722 11.35 20.3833 9.88601C21.7232 8.66846 21.8224 6.5952 20.6049 5.25526C19.3873 3.91532 17.3141 3.8161 15.9741 5.03366C14.363 6.4976 13.7073 9.29841 13.4608 10.8209C13.3689 11.3882 13.809 11.8725 14.3825 11.8352ZM20.1264 7.16655C19.9235 6.94322 19.5779 6.92669 19.3546 7.12961C19.1313 7.33254 19.1147 7.67808 19.3176 7.90141C19.5206 8.12473 19.8661 8.14127 20.0894 7.93834C20.3128 7.73541 20.3293 7.38987 20.1264 7.16655Z" fill="#128CFF"/>
</svg>
