<svg width="26" height="25" viewBox="0 0 26 25" fill="none" xmlns="http://www.w3.org/2000/svg">
<path fill-rule="evenodd" clip-rule="evenodd" d="M13.735 11.8081C14.7273 10.6413 16.4177 8.34972 16.5092 6.18711C16.5099 6.17216 16.5105 6.15719 16.511 6.14219C16.569 4.33263 15.1491 2.81867 13.3395 2.76065C11.53 2.70264 10.016 4.12251 9.95798 5.93204L9.95791 5.93204C9.88816 8.10779 11.4433 10.5277 12.3652 11.7642C12.7087 12.2249 13.3627 12.2459 13.735 11.8081ZM14.2239 4.44506C13.9222 4.44506 13.6775 4.68968 13.6775 4.99143C13.6775 5.29318 13.9222 5.53779 14.2239 5.53779C14.5257 5.53779 14.7703 5.29318 14.7703 4.99143C14.7703 4.68968 14.5257 4.44506 14.2239 4.44506Z" fill="#128CFF"/>
<path fill-rule="evenodd" clip-rule="evenodd" d="M11.005 12.8272C9.48813 13.1062 6.70197 13.8216 5.27278 15.4636L5.27282 15.4637L5.27268 15.4638C4.08403 16.8295 4.22752 18.9001 5.59317 20.0888C6.95881 21.2774 9.02948 21.134 10.2181 19.7683L10.2429 19.7395C11.6512 18.0931 11.9721 15.259 12.0388 13.7271C12.0638 13.1529 11.5702 12.7233 11.005 12.8272ZM5.84509 18.1351C6.0727 18.3332 6.41781 18.3093 6.61592 18.0817C6.81403 17.8541 6.79011 17.5089 6.5625 17.3108C6.3349 17.1127 5.98978 17.1366 5.79168 17.3643C5.59357 17.5919 5.61748 17.937 5.84509 18.1351Z" fill="#128CFF"/>
<path fill-rule="evenodd" clip-rule="evenodd" d="M13.8316 13.814C13.9477 15.3519 14.3629 18.1983 15.8436 19.794C17.0751 21.1211 19.1493 21.1986 20.4764 19.967C21.8035 18.7355 21.881 16.6613 20.6495 15.3342C19.1687 13.7385 16.3612 13.1122 14.8362 12.8817C14.268 12.7958 13.7883 13.2409 13.8316 13.814ZM18.5602 19.5086C18.7814 19.3033 18.7943 18.9576 18.5891 18.7365C18.3838 18.5153 18.0381 18.5024 17.8169 18.7076C17.5958 18.9129 17.5828 19.2586 17.7881 19.4797C17.9933 19.7009 18.339 19.7138 18.5602 19.5086Z" fill="#128CFF"/>
</svg>
