<svg width="14" height="14" viewBox="0 0 14 14" fill="none" xmlns="http://www.w3.org/2000/svg">
<path d="M12.25 9.61135V3.58068C12.25 3.26232 11.9285 3.04463 11.6329 3.16287L9.46844 4.02864C9.38061 4.06377 9.28394 4.07033 9.19217 4.04739L4.80783 2.95131C4.71606 2.92836 4.61939 2.93492 4.53156 2.97006L2.03287 3.96953C1.86203 4.03787 1.75 4.20334 1.75 4.38735V10.418C1.75 10.7364 2.07154 10.9541 2.36712 10.8358L4.53156 9.97006C4.61939 9.93493 4.71606 9.92836 4.80783 9.95131L9.19217 11.0474C9.28394 11.0703 9.38061 11.0638 9.46843 11.0286L11.9671 10.0292C12.138 9.96083 12.25 9.79536 12.25 9.61135Z" stroke="#128CFF" stroke-width="2" stroke-linejoin="round"/>
<path d="M9.33301 11.084V4.08398" stroke="#128CFF" stroke-width="2"/>
<path d="M4.66699 9.91602L4.66699 2.91602" stroke="#128CFF" stroke-width="2"/>
</svg>
