<svg width="110" height="110" viewBox="0 0 110 110" fill="none" xmlns="http://www.w3.org/2000/svg">
<mask id="mask0_652_1242" style="mask-type:alpha" maskUnits="userSpaceOnUse" x="0" y="0" width="110" height="110">
<rect width="110" height="110" fill="#D9D9D9"/>
</mask>
<g mask="url(#mask0_652_1242)">
<g filter="url(#filter0_d_652_1242)">
<path d="M55.0062 96.7661C49.9821 96.7661 45.2748 95.8162 40.884 93.9164C36.4932 92.0167 32.6644 89.4335 29.3975 86.1666C26.1306 82.8997 23.5473 79.0708 21.6476 74.6801C19.7478 70.2893 18.7979 65.5819 18.7979 60.5579C18.7979 55.5339 19.7478 50.8265 21.6476 46.4358C23.5473 42.045 26.1306 38.2162 29.3975 34.9492C32.6644 31.6824 36.4932 29.0991 40.884 27.1994C45.2748 25.2996 49.9821 24.3497 55.0062 24.3497C60.0302 24.3497 64.7376 25.2996 69.1283 27.1994C73.5191 29.0991 77.3479 31.6824 80.6149 34.9492C83.8817 38.2162 86.465 42.045 88.3647 46.4358C90.2645 50.8265 91.2144 55.5339 91.2144 60.5579C91.2144 65.5819 90.2645 70.2893 88.3647 74.6801C86.465 79.0708 83.8817 82.8997 80.6149 86.1666C77.3479 89.4335 73.5191 92.0167 69.1283 93.9164C64.7376 95.8162 60.0302 96.7661 55.0062 96.7661ZM67.2579 75.3479L71.5149 71.0909L57.9852 57.5611V38.5579H52.0271V60.1172L67.2579 75.3479ZM27.8676 15.7031L32.1247 19.9602L14.4085 37.6764L10.1514 33.4193L27.8676 15.7031ZM82.1448 15.7031L99.861 33.4193L95.6038 37.6764L77.8877 19.9602L82.1448 15.7031ZM54.9807 90.8079C63.3711 90.8079 70.5146 87.8681 76.4112 81.9883C82.3079 76.1087 85.2562 68.9737 85.2562 60.5834C85.2562 52.193 82.3163 45.0495 76.4366 39.1528C70.5569 33.2562 63.4219 30.3079 55.0316 30.3079C46.6413 30.3079 39.4978 33.2478 33.6011 39.1275C27.7045 45.0072 24.7562 52.1422 24.7562 60.5325C24.7562 68.9228 27.696 76.0663 33.5758 81.963C39.4554 87.8596 46.5904 90.8079 54.9807 90.8079Z" fill="white"/>
</g>
</g>
<defs>
<filter id="filter0_d_652_1242" x="6.15137" y="15.7031" width="97.71" height="89.0625" filterUnits="userSpaceOnUse" color-interpolation-filters="sRGB">
<feFlood flood-opacity="0" result="BackgroundImageFix"/>
<feColorMatrix in="SourceAlpha" type="matrix" values="0 0 0 0 0 0 0 0 0 0 0 0 0 0 0 0 0 0 127 0" result="hardAlpha"/>
<feOffset dy="4"/>
<feGaussianBlur stdDeviation="2"/>
<feComposite in2="hardAlpha" operator="out"/>
<feColorMatrix type="matrix" values="0 0 0 0 0 0 0 0 0 0 0 0 0 0 0 0 0 0 0.25 0"/>
<feBlend mode="normal" in2="BackgroundImageFix" result="effect1_dropShadow_652_1242"/>
<feBlend mode="normal" in="SourceGraphic" in2="effect1_dropShadow_652_1242" result="shape"/>
</filter>
</defs>
</svg>
