<svg width="20" height="21" viewBox="0 0 20 21" fill="none" xmlns="http://www.w3.org/2000/svg">
<mask id="mask0_637_434" style="mask-type:alpha" maskUnits="userSpaceOnUse" x="3" y="0" width="14" height="14">
<rect x="3" width="14" height="14" fill="#D9D9D9"/>
</mask>
<g mask="url(#mask0_637_434)">
<g filter="url(#filter0_d_637_434)">
<path d="M10.0008 12.3152C9.36136 12.3152 8.76224 12.1943 8.20342 11.9525C7.64459 11.7107 7.15729 11.3819 6.7415 10.9661C6.32572 10.5503 5.99693 10.063 5.75515 9.50421C5.51336 8.94538 5.39247 8.34626 5.39247 7.70684C5.39247 7.06742 5.51336 6.4683 5.75515 5.90947C5.99693 5.35065 6.32572 4.86334 6.7415 4.44755C7.15729 4.03177 7.64459 3.70299 8.20342 3.46121C8.76224 3.21942 9.36136 3.09852 10.0008 3.09852C10.6402 3.09852 11.2393 3.21942 11.7982 3.46121C12.357 3.70299 12.8443 4.03177 13.2601 4.44755C13.6759 4.86334 14.0046 5.35065 14.2464 5.90947C14.4882 6.4683 14.6091 7.06742 14.6091 7.70684C14.6091 8.34626 14.4882 8.94538 14.2464 9.50421C14.0046 10.063 13.6759 10.5503 13.2601 10.9661C12.8443 11.3819 12.357 11.7107 11.7982 11.9525C11.2393 12.1943 10.6402 12.3152 10.0008 12.3152ZM11.5601 9.5892L12.1019 9.0474L10.3799 7.32543V4.90684H9.62163V7.65075L11.5601 9.5892ZM6.54678 1.99805L7.08859 2.53986L4.83381 4.79465L4.29199 4.25283L6.54678 1.99805ZM13.4548 1.99805L15.7096 4.25283L15.1678 4.79465L12.913 2.53986L13.4548 1.99805ZM9.99755 11.5568C11.0654 11.5568 11.9746 11.1827 12.7251 10.4343C13.4755 9.68603 13.8508 8.77794 13.8508 7.71008C13.8508 6.64222 13.4766 5.73304 12.7283 4.98256C11.98 4.23208 11.0719 3.85684 10.004 3.85684C8.93616 3.85684 8.02699 4.231 7.2765 4.97933C6.52602 5.72765 6.15078 6.63574 6.15078 7.7036C6.15078 8.77146 6.52495 9.68063 7.27328 10.4311C8.0216 11.1816 8.92969 11.5568 9.99755 11.5568Z" fill="white"/>
</g>
</g>
<defs>
<filter id="filter0_d_637_434" x="0.291992" y="1.99805" width="19.418" height="18.3164" filterUnits="userSpaceOnUse" color-interpolation-filters="sRGB">
<feFlood flood-opacity="0" result="BackgroundImageFix"/>
<feColorMatrix in="SourceAlpha" type="matrix" values="0 0 0 0 0 0 0 0 0 0 0 0 0 0 0 0 0 0 127 0" result="hardAlpha"/>
<feOffset dy="4"/>
<feGaussianBlur stdDeviation="2"/>
<feComposite in2="hardAlpha" operator="out"/>
<feColorMatrix type="matrix" values="0 0 0 0 0 0 0 0 0 0 0 0 0 0 0 0 0 0 0.25 0"/>
<feBlend mode="normal" in2="BackgroundImageFix" result="effect1_dropShadow_637_434"/>
<feBlend mode="normal" in="SourceGraphic" in2="effect1_dropShadow_637_434" result="shape"/>
</filter>
</defs>
</svg>
