<svg width="14" height="14" viewBox="0 0 14 14" fill="none" xmlns="http://www.w3.org/2000/svg">
<mask id="mask0_464_912" style="mask-type:alpha" maskUnits="userSpaceOnUse" x="0" y="0" width="14" height="14">
<rect width="14" height="14" fill="#D9D9D9"/>
</mask>
<g mask="url(#mask0_464_912)">
<path d="M6.38742 10.7483L4.60602 8.96688L5.13662 8.43628L6.38742 9.68708L8.86322 7.1967L9.39382 7.7273L6.38742 10.7483ZM3.32943 12.3031C3.06685 12.3031 2.8449 12.2107 2.66358 12.026C2.48226 11.8413 2.3916 11.621 2.3916 11.3653V4.02427C2.3916 3.7685 2.48226 3.54825 2.66358 3.36353C2.8449 3.1788 3.06685 3.08644 3.32943 3.08644H4.60379V1.61914H5.38454V3.08644H8.63773V1.61914H9.39605V3.08644H10.6704C10.933 3.08644 11.1549 3.1788 11.3363 3.36353C11.5176 3.54825 11.6082 3.7685 11.6082 4.02427V11.3653C11.6082 11.621 11.5176 11.8413 11.3363 12.026C11.1549 12.2107 10.933 12.3031 10.6704 12.3031H3.32943ZM3.32943 11.5448H10.6704C10.7153 11.5448 10.7564 11.5261 10.7938 11.4887C10.8312 11.4513 10.8499 11.4101 10.8499 11.3653V6.47427H3.14992V11.3653C3.14992 11.4101 3.16862 11.4513 3.20601 11.4887C3.24341 11.5261 3.28455 11.5448 3.32943 11.5448ZM3.14992 5.71595H10.8499V4.02427C10.8499 3.97939 10.8312 3.93825 10.7938 3.90085C10.7564 3.86346 10.7153 3.84476 10.6704 3.84476H3.32943C3.28455 3.84476 3.24341 3.86346 3.20601 3.90085C3.16862 3.93825 3.14992 3.97939 3.14992 4.02427V5.71595Z" fill="white"/>
</g>
</svg>
