<svg width="14" height="14" viewBox="0 0 14 14" fill="none" xmlns="http://www.w3.org/2000/svg">
<path d="M11.1828 5.5C11.5694 5.5 11.8828 5.8134 11.8828 6.2V7.8C11.8828 8.1866 11.5694 8.5 11.1828 8.5H10.2508C9.86418 8.5 9.55078 8.1866 9.55078 7.8V6.2C9.55078 5.8134 9.86418 5.5 10.2508 5.5H11.1828Z" fill="#128CFF" stroke="#128CFF"/>
<path d="M3.75703 5.5C4.14363 5.5 4.45703 5.8134 4.45703 6.2V7.8C4.45703 8.1866 4.14363 8.5 3.75703 8.5H2.825C2.4384 8.5 2.125 8.1866 2.125 7.8V6.2C2.125 5.8134 2.4384 5.5 2.825 5.5H3.75703Z" fill="#128CFF" stroke="#128CFF"/>
<path d="M2 4C2 3.44772 2.44772 3 3 3H11C11.5523 3 12 3.44772 12 4V10C12 10.5523 11.5523 11 11 11H3C2.44772 11 2 10.5523 2 10V4Z" stroke="#128CFF" stroke-width="2"/>
<path d="M7.00391 3.33984L7.00391 11.3398" stroke="#128CFF" stroke-width="2"/>
</svg>
