<svg width="14" height="14" viewBox="0 0 14 14" fill="none" xmlns="http://www.w3.org/2000/svg">
<circle cx="7.00033" cy="4.66732" r="1.33333" stroke="#128CFF" stroke-width="2" stroke-linecap="round"/>
<path d="M9.26747 4.875C9.36693 4.70274 9.53074 4.57704 9.72288 4.52556C9.91501 4.47407 10.1197 4.50102 10.292 4.60048C10.4643 4.69994 10.59 4.86375 10.6414 5.05589C10.6929 5.24802 10.666 5.45274 10.5665 5.625C10.4671 5.79726 10.3032 5.92296 10.1111 5.97444C9.91897 6.02593 9.71426 5.99898 9.54199 5.89952C9.36973 5.80006 9.24403 5.63625 9.19255 5.44411C9.14107 5.25198 9.16802 5.04726 9.26747 4.875L9.26747 4.875Z" stroke="#128CFF" stroke-width="2"/>
<path d="M3.43349 4.875C3.53294 4.70274 3.69676 4.57704 3.88889 4.52556C4.08103 4.47407 4.28574 4.50102 4.45801 4.60048C4.63027 4.69994 4.75597 4.86375 4.80745 5.05589C4.85893 5.24802 4.83198 5.45274 4.73253 5.625C4.63307 5.79726 4.46926 5.92296 4.27712 5.97444C4.08499 6.02593 3.88027 5.99898 3.70801 5.89952C3.53574 5.80006 3.41005 5.63625 3.35856 5.44411C3.30708 5.25198 3.33403 5.04726 3.43349 4.875L3.43349 4.875Z" stroke="#128CFF" stroke-width="2"/>
<path d="M9.75813 10.4993L8.79148 10.2432L8.4587 11.4993H9.75813V10.4993ZM11.8999 9.42719L11.0118 9.88688L11.0118 9.88688L11.8999 9.42719ZM8.62207 8.58049L8.01721 7.78416L6.86065 8.66263L8.09394 9.42966L8.62207 8.58049ZM9.74472 10.1014L8.79189 10.4049L8.79189 10.4049L9.74472 10.1014ZM11.1171 9.49935H9.75813V11.4993H11.1171V9.49935ZM11.0118 9.88688C10.9947 9.85381 10.9762 9.79149 10.9845 9.71372C10.9924 9.6401 11.0206 9.58569 11.0456 9.55328C11.0905 9.49495 11.1256 9.49935 11.1171 9.49935V11.4993C11.7102 11.4993 12.2749 11.2348 12.6299 10.7739C13.0053 10.2866 13.1171 9.60336 12.788 8.9675L11.0118 9.88688ZM9.9166 9.16602C10.2375 9.16602 10.4456 9.25751 10.5969 9.36978C10.7619 9.49219 10.9003 9.67153 11.0118 9.88688L12.788 8.9675C12.3695 8.15913 11.4986 7.16602 9.9166 7.16602V9.16602ZM9.22693 9.37683C9.37988 9.26065 9.59022 9.16602 9.9166 9.16602V7.16602C9.14635 7.16602 8.5125 7.40796 8.01721 7.78416L9.22693 9.37683ZM8.09394 9.42966C8.45487 9.65413 8.66866 10.018 8.79189 10.4049L10.6976 9.79794C10.4907 9.14857 10.0575 8.29563 9.1502 7.73133L8.09394 9.42966ZM8.79189 10.4049C8.77997 10.3675 8.77421 10.3084 8.79148 10.2432L10.7248 10.7554C10.8071 10.4447 10.7987 10.1156 10.6976 9.79794L8.79189 10.4049Z" fill="#128CFF"/>
<path d="M5.37796 8.58048L5.90608 9.42965L7.13939 8.66262L5.98281 7.78415L5.37796 8.58048ZM2.10015 9.42719L2.98822 9.88688L2.10015 9.42719ZM4.24188 10.4993V11.4993H5.54132L5.20853 10.2432L4.24188 10.4993ZM4.25529 10.1014L5.20813 10.4049L4.25529 10.1014ZM4.08345 9.16602C4.40982 9.16602 4.62015 9.26065 4.7731 9.37682L5.98281 7.78415C5.48752 7.40795 4.85368 7.16602 4.08345 7.16602V9.16602ZM2.98822 9.88688C3.09969 9.67153 3.23818 9.49219 3.40316 9.36978C3.55448 9.25751 3.76253 9.16602 4.08345 9.16602V7.16602C2.50146 7.16602 1.6305 8.15913 1.21207 8.96749L2.98822 9.88688ZM2.88289 9.49935C2.87441 9.49935 2.90949 9.49495 2.95443 9.55328C2.9794 9.58569 3.00767 9.6401 3.01554 9.71372C3.02386 9.79149 3.00534 9.85382 2.98822 9.88688L1.21207 8.96749C0.882928 9.60335 0.994706 10.2866 1.3701 10.7739C1.72516 11.2348 2.28987 11.4993 2.88289 11.4993V9.49935ZM4.24188 9.49935H2.88289V11.4993H4.24188V9.49935ZM5.20853 10.2432C5.2258 10.3084 5.22004 10.3675 5.20813 10.4049L3.30246 9.79794C3.20129 10.1156 3.19291 10.4447 3.27523 10.7554L5.20853 10.2432ZM5.20813 10.4049C5.33135 10.018 5.54515 9.65413 5.90608 9.42965L4.84983 7.73132C3.9425 8.29562 3.50929 9.14856 3.30246 9.79794L5.20813 10.4049Z" fill="#128CFF"/>
<path d="M6.99967 8.16602C8.78136 8.16602 9.47468 9.25438 9.74448 10.1014C9.91209 10.6277 9.46863 11.0827 8.91634 11.0827H5.08301C4.53072 11.0827 4.08726 10.6277 4.25487 10.1014C4.52467 9.25438 5.21799 8.16602 6.99967 8.16602Z" stroke="#128CFF" stroke-width="2" stroke-linecap="round"/>
</svg>
