<svg width="24" height="24" viewBox="0 0 24 24" fill="none" xmlns="http://www.w3.org/2000/svg">
<path d="M12.0343 5.79199C8.30089 5.79199 5.29004 8.20064 5.29004 11.1248C5.29004 13.0228 6.54255 14.6848 8.42132 15.6338L7.78543 18.0088C7.77344 18.0444 7.7716 18.0826 7.7801 18.1192C7.78861 18.1558 7.80714 18.1893 7.8336 18.2159C7.87219 18.2499 7.92185 18.2688 7.97331 18.2689C8.01597 18.2655 8.05645 18.2486 8.08892 18.2207L10.8252 16.3757C11.2291 16.4315 11.6362 16.4604 12.044 16.4624C15.7726 16.4624 18.7883 14.0537 18.7883 11.1248C18.7883 8.19583 15.763 5.79199 12.0343 5.79199Z" fill="#392020"/>
</svg>
