<svg width="350" height="115" viewBox="0 0 350 115" fill="none" xmlns="http://www.w3.org/2000/svg">
<rect y="0.5" width="350" height="114" rx="10" fill="url(#paint0_linear_1_483)"/>
<rect x="28.25" y="23.75" width="32.5" height="17.5" rx="8.75" fill="white"/>
<rect x="28.25" y="23.75" width="32.5" height="17.5" rx="8.75" stroke="white" stroke-width="0.5"/>
<path d="M40.275 34.0488C40.9228 34.0488 41.4843 34.1156 41.9596 34.249C42.4348 34.3792 42.801 34.5713 43.0582 34.8252C43.3154 35.0758 43.4456 35.377 43.4488 35.7285C43.4456 36.0736 43.3154 36.3714 43.0582 36.6221C42.801 36.8727 42.4332 37.0648 41.9547 37.1982C41.4794 37.3317 40.9195 37.3984 40.275 37.3984C39.637 37.3984 39.0787 37.3317 38.6002 37.1982C38.1249 37.0648 37.7571 36.8727 37.4967 36.6221C37.2395 36.3714 37.1109 36.0736 37.1109 35.7285C37.1109 35.377 37.2395 35.0758 37.4967 34.8252C37.7571 34.5713 38.1249 34.3792 38.6002 34.249C39.0755 34.1156 39.6337 34.0488 40.275 34.0488ZM40.275 34.9766C39.6565 34.9766 39.1812 35.04 38.8492 35.167C38.5172 35.2939 38.3512 35.4811 38.3512 35.7285C38.3512 35.9661 38.5172 36.1468 38.8492 36.2705C39.1812 36.391 39.6565 36.4512 40.275 36.4512C40.8935 36.4512 41.3704 36.391 41.7057 36.2705C42.041 36.1468 42.2086 35.9661 42.2086 35.7285C42.2086 35.4811 42.041 35.2939 41.7057 35.167C41.3704 35.04 40.8935 34.9766 40.275 34.9766ZM43.4 29.6348C43.4 30.1133 43.3854 30.5283 43.3561 30.8799C43.33 31.2314 43.26 31.6107 43.1461 32.0176L41.9254 31.9004C42.0133 31.5358 42.0719 31.2021 42.1012 30.8994C42.1305 30.5967 42.1484 30.2598 42.1549 29.8887H37.1988V28.9121H43.4V29.6348ZM44.357 33.4824H36.2906V32.4766H39.318V30.9238H40.5484V32.4766H44.357V33.4824ZM48.0609 30.9336C48.0609 31.4251 48.1439 31.9085 48.31 32.3838C48.4792 32.8558 48.7315 33.2806 49.0668 33.6582C49.4021 34.0358 49.809 34.3255 50.2875 34.5273L49.6137 35.5039C49.1026 35.2891 48.6648 34.9733 48.3002 34.5566C47.9356 34.14 47.6492 33.6533 47.4408 33.0967C47.2357 33.7021 46.9477 34.2344 46.5766 34.6934C46.2055 35.1491 45.766 35.4941 45.2582 35.7285L44.5453 34.7422C45.0206 34.5306 45.4258 34.223 45.7611 33.8193C46.0997 33.4157 46.3536 32.9632 46.5229 32.4619C46.6954 31.9574 46.7816 31.4479 46.7816 30.9336V30.3867H44.8969V29.3711H49.9164V30.3867H48.0609V30.9336ZM52.0551 37.3984H50.7953V28.5117H52.0551V37.3984Z" fill="#128CFF"/>
<path d="M32.4434 62.6367C31.7279 62.6367 31.0853 62.5137 30.5156 62.2676C29.9505 62.0169 29.5039 61.6706 29.1758 61.2285C28.8522 60.7819 28.6836 60.276 28.6699 59.7109H30.748C30.7617 59.9525 30.8438 60.1667 30.9941 60.3535C31.1445 60.5404 31.3473 60.6862 31.6025 60.791C31.8577 60.8913 32.1426 60.9414 32.457 60.9414C32.7806 60.9414 33.07 60.8844 33.3252 60.7705C33.585 60.652 33.7855 60.4902 33.9268 60.2852C34.0726 60.0801 34.1432 59.8477 34.1387 59.5879C34.1432 59.319 34.068 59.0798 33.9131 58.8701C33.7627 58.6605 33.5462 58.4987 33.2637 58.3848C32.9811 58.2663 32.6484 58.207 32.2656 58.207H31.3496V56.6895H32.2656C32.5846 56.6895 32.8695 56.6348 33.1201 56.5254C33.3708 56.416 33.5667 56.2611 33.708 56.0605C33.8493 55.86 33.9199 55.6322 33.9199 55.377C33.9199 55.1263 33.8584 54.9053 33.7354 54.7139C33.6169 54.5225 33.4482 54.3743 33.2295 54.2695C33.0107 54.1602 32.7578 54.1055 32.4707 54.1055C32.179 54.1055 31.9102 54.1579 31.6641 54.2627C31.4225 54.363 31.2266 54.5088 31.0762 54.7002C30.9303 54.887 30.8529 55.1035 30.8438 55.3496H28.875C28.8841 54.7891 29.0459 54.29 29.3604 53.8525C29.6748 53.415 30.1032 53.0755 30.6455 52.834C31.1924 52.5879 31.8008 52.4648 32.4707 52.4648C33.1452 52.4648 33.7422 52.5879 34.2617 52.834C34.7858 53.0755 35.1914 53.4105 35.4785 53.8389C35.7656 54.2627 35.9069 54.7344 35.9023 55.2539C35.9069 55.6139 35.8294 55.9421 35.6699 56.2383C35.515 56.5299 35.2939 56.7715 35.0068 56.9629C34.7243 57.1543 34.3984 57.2819 34.0293 57.3457V57.4277C34.5078 57.487 34.9157 57.6191 35.2529 57.8242C35.5902 58.0293 35.8454 58.2959 36.0186 58.624C36.1917 58.9476 36.276 59.3145 36.2715 59.7246C36.276 60.2806 36.1143 60.7819 35.7861 61.2285C35.458 61.6706 35.0023 62.0169 34.4189 62.2676C33.8356 62.5137 33.1771 62.6367 32.4434 62.6367ZM41.5625 62.6367C40.7376 62.6367 40.0267 62.4385 39.4297 62.042C38.8372 61.641 38.3815 61.0599 38.0625 60.2988C37.7435 59.5378 37.584 58.6217 37.584 57.5508C37.584 56.4798 37.7435 55.5638 38.0625 54.8027C38.3815 54.0417 38.8372 53.4629 39.4297 53.0664C40.0267 52.6654 40.7376 52.4648 41.5625 52.4648C42.3828 52.4648 43.0915 52.6654 43.6885 53.0664C44.2855 53.4629 44.7435 54.0439 45.0625 54.8096C45.3815 55.5706 45.541 56.4844 45.541 57.5508C45.541 58.6263 45.3815 59.5446 45.0625 60.3057C44.7435 61.0667 44.2855 61.6455 43.6885 62.042C43.096 62.4385 42.3874 62.6367 41.5625 62.6367ZM41.5625 60.9414C41.9453 60.9414 42.2757 60.8184 42.5537 60.5723C42.8363 60.3262 43.0527 59.9548 43.2031 59.458C43.3581 58.9613 43.4355 58.3483 43.4355 57.6191C43.4355 56.4844 43.2715 55.623 42.9434 55.0352C42.6152 54.4427 42.1549 54.1465 41.5625 54.1465C40.9701 54.1465 40.5098 54.4427 40.1816 55.0352C39.8535 55.623 39.6895 56.4844 39.6895 57.6191C39.6895 58.3483 39.7646 58.9613 39.915 59.458C40.07 59.9548 40.2865 60.3262 40.5645 60.5723C40.847 60.8184 41.1797 60.9414 41.5625 60.9414ZM57.9414 62.3359H46.5527V60.9141H51.3652V58.4805H53.1016V60.9141H57.9414V62.3359ZM56.9434 54.4199H53.1426C53.1927 54.8984 53.3887 55.3564 53.7305 55.7939C54.0723 56.2269 54.5645 56.6006 55.207 56.915C55.8496 57.2295 56.6243 57.4414 57.5312 57.5508L56.9023 58.9043C55.8086 58.7676 54.863 58.4827 54.0654 58.0498C53.2679 57.6169 52.6572 57.0723 52.2334 56.416C51.8096 57.0723 51.2012 57.6169 50.4082 58.0498C49.6152 58.4827 48.6719 58.7676 47.5781 58.9043L46.9355 57.5508C47.8424 57.4414 48.6172 57.2295 49.2598 56.915C49.9023 56.6006 50.3945 56.2269 50.7363 55.7939C51.0827 55.3564 51.2832 54.8984 51.3379 54.4199H47.5371V53.0254H51.3652V51.4668H53.1016V53.0254H56.9434V54.4199ZM65.0781 53.2715H67.4023V51.3301H69.1387V60.3809H67.4023V57.332H65.0781V58.3848H59.1719V52.3281H65.0781V53.2715ZM60.9082 57.0312H63.3691V53.709H60.9082V57.0312ZM69.3984 63.5391H60.8535V59.5195H62.6172V62.1445H69.3984V63.5391ZM67.4023 55.9512V54.6797H65.0781V55.9512H67.4023ZM85.3262 58.6719H80.5137V59.5605C81.6165 59.6335 82.4665 59.8477 83.0635 60.2031C83.665 60.5586 83.9681 61.0371 83.9727 61.6387C83.9681 62.0944 83.7949 62.4795 83.4531 62.7939C83.1113 63.113 82.6169 63.3522 81.9697 63.5117C81.3226 63.6758 80.5456 63.7578 79.6387 63.7578C78.7272 63.7578 77.9434 63.6758 77.2871 63.5117C76.6354 63.3522 76.1364 63.113 75.79 62.7939C75.4482 62.4795 75.2773 62.0944 75.2773 61.6387C75.2773 61.0371 75.5804 60.5586 76.1865 60.2031C76.7972 59.8477 77.6608 59.6335 78.7773 59.5605V58.6719H73.9785V57.3047H85.3262V58.6719ZM80.5 52.4238H84.2324V53.8047H80.6641C80.7552 54.1009 80.9648 54.3743 81.293 54.625C81.6257 54.8711 82.0859 55.0785 82.6738 55.2471C83.2663 55.4157 83.9818 55.5273 84.8203 55.582L84.3008 56.9082C83.1706 56.8262 82.209 56.6279 81.416 56.3135C80.6276 55.9945 80.0352 55.5798 79.6387 55.0693C79.2376 55.5798 78.6429 55.9945 77.8545 56.3135C77.0661 56.6279 76.1113 56.8262 74.9902 56.9082L74.457 55.582C75.2956 55.5273 76.0088 55.4157 76.5967 55.2471C77.1846 55.0785 77.6426 54.8711 77.9707 54.625C78.2988 54.3743 78.5107 54.1009 78.6064 53.8047H75.0723V52.4238H78.7773V51.3574H80.5V52.4238ZM79.6387 60.8184C78.7637 60.8184 78.112 60.8867 77.6836 61.0234C77.2598 61.1556 77.0501 61.3607 77.0547 61.6387C77.0501 61.9258 77.2598 62.1377 77.6836 62.2744C78.112 62.4066 78.7637 62.4727 79.6387 62.4727C80.4954 62.4727 81.138 62.4043 81.5664 62.2676C81.9993 62.1309 82.2181 61.9212 82.2227 61.6387C82.2181 61.3607 81.9993 61.1556 81.5664 61.0234C81.138 60.8867 80.4954 60.8184 79.6387 60.8184ZM97.4531 59.0684H92.7637V61.0781H91.041V59.0684H86.0645V57.7012H97.4531V59.0684ZM96.1953 63.5391H87.4043V60.0938H89.127V62.1445H96.1953V63.5391ZM89.25 53.0117H94.2402V51.7129H95.9766V56.8262H87.5273V51.7129H89.25V53.0117ZM94.2402 55.4453V54.3105H89.25V55.4453H94.2402ZM104.18 54.5977H98.1641V53.2168H100.324V51.6582H102.047V53.2168H104.18V54.5977ZM101.199 55.1582C101.723 55.1582 102.19 55.2858 102.601 55.541C103.015 55.7917 103.339 56.1403 103.571 56.5869C103.808 57.0335 103.929 57.5417 103.934 58.1113C103.929 58.681 103.808 59.1914 103.571 59.6426C103.339 60.0938 103.015 60.4469 102.601 60.7021C102.19 60.9528 101.723 61.0781 101.199 61.0781C100.675 61.0781 100.203 60.9528 99.7842 60.7021C99.3695 60.4469 99.0436 60.0938 98.8066 59.6426C98.5697 59.1914 98.4512 58.681 98.4512 58.1113C98.4512 57.5462 98.5697 57.0404 98.8066 56.5938C99.0436 56.1426 99.3695 55.7917 99.7842 55.541C100.203 55.2858 100.675 55.1582 101.199 55.1582ZM101.199 56.6074C100.83 56.6074 100.534 56.7419 100.311 57.0107C100.092 57.2796 99.9824 57.6465 99.9824 58.1113C99.9824 58.5762 100.092 58.9408 100.311 59.2051C100.534 59.4694 100.83 59.6016 101.199 59.6016C101.555 59.6016 101.842 59.4694 102.061 59.2051C102.284 58.9408 102.398 58.5762 102.402 58.1113C102.398 57.6465 102.284 57.2796 102.061 57.0107C101.842 56.7419 101.555 56.6074 101.199 56.6074ZM108.938 63.7578H107.283V57.7695H106.271V63.2246H104.645V51.5625H106.271V56.375H107.283V51.3164H108.938V63.7578ZM121.666 62.3086H110.277V60.873H112.82V57.8311C112.328 57.5348 111.948 57.1702 111.679 56.7373C111.41 56.2998 111.275 55.8099 111.275 55.2676C111.275 54.6068 111.476 54.0234 111.877 53.5176C112.278 53.0117 112.832 52.6198 113.538 52.3418C114.249 52.0592 115.053 51.918 115.951 51.918C116.844 51.918 117.644 52.0592 118.351 52.3418C119.062 52.6198 119.62 53.0117 120.025 53.5176C120.431 54.0234 120.636 54.6068 120.641 55.2676C120.636 55.7962 120.502 56.277 120.237 56.71C119.978 57.1383 119.611 57.5007 119.137 57.7969V60.873H121.666V62.3086ZM115.951 53.2988C115.359 53.2988 114.839 53.3763 114.393 53.5312C113.951 53.6862 113.606 53.9118 113.36 54.208C113.119 54.4997 112.998 54.8529 112.998 55.2676C112.998 55.6686 113.119 56.0173 113.36 56.3135C113.606 56.6097 113.953 56.8376 114.399 56.9971C114.846 57.1566 115.363 57.2363 115.951 57.2363C116.535 57.2363 117.049 57.1566 117.496 56.9971C117.943 56.8376 118.289 56.6097 118.535 56.3135C118.786 56.0173 118.913 55.6686 118.918 55.2676C118.913 54.8574 118.788 54.5042 118.542 54.208C118.296 53.9118 117.95 53.6862 117.503 53.5312C117.056 53.3763 116.539 53.2988 115.951 53.2988ZM117.373 60.873V58.46C116.904 58.5465 116.43 58.5898 115.951 58.5898C115.441 58.5898 114.971 58.5465 114.543 58.46V60.873H117.373ZM125.029 59.5332H123.279L123.102 52.6016H125.207L125.029 59.5332ZM124.168 62.623C123.958 62.623 123.765 62.5706 123.587 62.4658C123.409 62.361 123.268 62.222 123.163 62.0488C123.063 61.8711 123.015 61.6797 123.02 61.4746C123.015 61.2695 123.063 61.0804 123.163 60.9072C123.268 60.734 123.409 60.5973 123.587 60.4971C123.765 60.3923 123.958 60.3398 124.168 60.3398C124.364 60.3398 124.549 60.3923 124.722 60.4971C124.899 60.5973 125.041 60.734 125.146 60.9072C125.25 61.0804 125.303 61.2695 125.303 61.4746C125.303 61.6797 125.25 61.8711 125.146 62.0488C125.041 62.222 124.899 62.361 124.722 62.4658C124.549 62.5706 124.364 62.623 124.168 62.623Z" fill="#C9E5FF"/>
<path d="M34.918 73.957C34.918 74.5768 35.0934 75.1829 35.4443 75.7754C35.7998 76.3678 36.3125 76.8828 36.9824 77.3203C37.6569 77.7578 38.4453 78.054 39.3477 78.209L38.582 79.6582C37.5156 79.4486 36.5859 79.0589 35.793 78.4893C35.0046 77.9196 34.4053 77.2269 33.9951 76.4111C33.5758 77.2223 32.9697 77.9128 32.1768 78.4824C31.3883 79.0521 30.4655 79.444 29.4082 79.6582L28.6562 78.209C29.5449 78.0495 30.3219 77.751 30.9873 77.3135C31.6527 76.876 32.1631 76.361 32.5186 75.7686C32.874 75.1715 33.054 74.5677 33.0586 73.957V73.0547H34.918V73.957ZM39.7578 83.2266H28.3691V81.791H39.7578V83.2266ZM43.5996 73.0137C44.1237 73.0137 44.5931 73.1162 45.0078 73.3213C45.4271 73.5218 45.7552 73.8021 45.9922 74.1621C46.2337 74.5176 46.3568 74.9232 46.3613 75.3789C46.3568 75.8346 46.2337 76.2402 45.9922 76.5957C45.7552 76.9512 45.4271 77.2292 45.0078 77.4297C44.5931 77.6302 44.1237 77.7305 43.5996 77.7305C43.0664 77.7305 42.5879 77.6302 42.1641 77.4297C41.7402 77.2292 41.4076 76.9512 41.166 76.5957C40.929 76.2402 40.8105 75.8346 40.8105 75.3789C40.8105 74.9232 40.929 74.5176 41.166 74.1621C41.4076 73.8021 41.7402 73.5218 42.1641 73.3213C42.5879 73.1162 43.0664 73.0137 43.5996 73.0137ZM43.5996 74.2988C43.2214 74.2988 42.9183 74.3968 42.6904 74.5928C42.4671 74.7842 42.3555 75.0462 42.3555 75.3789C42.3555 75.707 42.4671 75.9645 42.6904 76.1514C42.9137 76.3382 43.2168 76.4362 43.5996 76.4453C43.9642 76.4362 44.2559 76.3382 44.4746 76.1514C44.6979 75.9645 44.8118 75.707 44.8164 75.3789C44.8118 75.0462 44.6979 74.7842 44.4746 74.5928C44.2513 74.3968 43.9596 74.2988 43.5996 74.2988ZM51.4062 84.7578H49.7656V72.3164H51.4062V84.7578ZM48.8906 84.1836H47.25V81.6406H45.2676V80.3145H47.25V72.5215H48.8906V84.1836ZM41.084 78.3867C43.4766 78.3867 45.3223 78.2865 46.6211 78.0859L46.7578 79.3848C46.097 79.5124 45.304 79.6149 44.3789 79.6924V83.7734H42.7383V79.7812C42.3099 79.7995 41.7174 79.8086 40.9609 79.8086H40.4824L40.291 78.3867H41.084ZM59.582 74.7637H54.9746V76.8145H59.0625V78.1816H54.9746V80.5332C56.0137 80.5241 56.9297 80.4945 57.7227 80.4443C58.5156 80.3942 59.3223 80.3053 60.1426 80.1777L60.3066 81.5859C59.3906 81.7181 58.4723 81.8092 57.5518 81.8594C56.6357 81.9049 55.5579 81.9277 54.3184 81.9277H53.252V73.3418H59.582V74.7637ZM63.0273 84.7578H61.2637V72.3164H63.0273V84.7578ZM68.0996 73.1914C68.6556 73.1914 69.1592 73.3395 69.6104 73.6357C70.0615 73.9274 70.4307 74.3467 70.7178 74.8936C71.0094 75.4359 71.1963 76.0762 71.2783 76.8145H73.4453V72.3164H75.168V84.7852H73.4453V78.209H71.2988C71.2396 78.9974 71.0664 79.6833 70.7793 80.2666C70.4922 80.8454 70.1185 81.2897 69.6582 81.5996C69.1979 81.9095 68.6784 82.0645 68.0996 82.0645C67.4707 82.0645 66.9102 81.8844 66.418 81.5244C65.9303 81.1598 65.5498 80.6426 65.2764 79.9727C65.0029 79.2982 64.8685 78.5143 64.873 77.6211C64.8685 76.7324 65.0029 75.9554 65.2764 75.29C65.5498 74.6201 65.9303 74.1029 66.418 73.7383C66.9102 73.3737 67.4707 73.1914 68.0996 73.1914ZM68.0996 74.7637C67.7897 74.7637 67.5163 74.8753 67.2793 75.0986C67.0423 75.3174 66.8577 75.6432 66.7256 76.0762C66.598 76.5046 66.5365 77.0195 66.541 77.6211C66.5365 78.2272 66.598 78.7445 66.7256 79.1729C66.8577 79.6012 67.04 79.9271 67.2725 80.1504C67.5094 80.3691 67.7852 80.4785 68.0996 80.4785C68.4141 80.4785 68.6875 80.3691 68.9199 80.1504C69.1569 79.9316 69.3392 79.6081 69.4668 79.1797C69.5944 78.7513 69.6582 78.2318 69.6582 77.6211C69.6582 77.015 69.5944 76.4977 69.4668 76.0693C69.3392 75.641 69.1569 75.3174 68.9199 75.0986C68.6875 74.8753 68.4141 74.7637 68.0996 74.7637ZM84.6973 75.1328C84.6973 75.9349 84.8066 76.7005 85.0254 77.4297C85.2487 78.1543 85.5859 78.7992 86.0371 79.3643C86.4883 79.9248 87.0488 80.3509 87.7188 80.6426L86.6523 82.0371C85.9824 81.709 85.4105 81.251 84.9365 80.6631C84.4671 80.0706 84.098 79.3802 83.8291 78.5918C83.5511 79.4349 83.166 80.1709 82.6738 80.7998C82.1862 81.4287 81.5983 81.9141 80.9102 82.2559L79.8164 80.834C80.5 80.5286 81.0742 80.0798 81.5391 79.4873C82.0039 78.8949 82.3503 78.2227 82.5781 77.4707C82.8105 76.7188 82.929 75.9395 82.9336 75.1328V73.2734H84.6973V75.1328ZM90.4941 84.7852H88.7715V77.6348H86.3242V76.2266H88.7715V72.3164H90.4941V84.7852ZM102.512 84.7852H100.748V72.3164H102.512V84.7852ZM94.459 76.3359H97.1387V73.3008H98.8613V81.873H92.709V73.3008H94.459V76.3359ZM97.1387 80.4648V77.6895H94.459V80.4648H97.1387ZM110.742 73.957C110.742 74.5768 110.918 75.1829 111.269 75.7754C111.624 76.3678 112.137 76.8828 112.807 77.3203C113.481 77.7578 114.27 78.054 115.172 78.209L114.406 79.6582C113.34 79.4486 112.41 79.0589 111.617 78.4893C110.829 77.9196 110.229 77.2269 109.819 76.4111C109.4 77.2223 108.794 77.9128 108.001 78.4824C107.213 79.0521 106.29 79.444 105.232 79.6582L104.48 78.209C105.369 78.0495 106.146 77.751 106.812 77.3135C107.477 76.876 107.987 76.361 108.343 75.7686C108.698 75.1715 108.878 74.5677 108.883 73.957V73.0547H110.742V73.957ZM115.582 83.2266H104.193V81.791H115.582V83.2266ZM129.336 77.0879H131.1V78.5234H129.336V84.7305H127.586V72.3164H129.336V77.0879ZM126.014 73.5879C126.005 75.5703 125.558 77.3226 124.674 78.8447C123.794 80.3623 122.359 81.6087 120.367 82.584L119.383 81.2441C120.864 80.5013 122.001 79.6217 122.794 78.6055C123.591 77.5892 124.072 76.3906 124.236 75.0098H120.094V73.5879H126.014ZM142.037 84.7852H140.273V72.3164H142.037V84.7852ZM135.283 73.1914C135.908 73.1914 136.466 73.3737 136.958 73.7383C137.455 74.1029 137.844 74.6201 138.127 75.29C138.41 75.96 138.551 76.737 138.551 77.6211C138.551 78.5143 138.41 79.2982 138.127 79.9727C137.844 80.6426 137.455 81.1598 136.958 81.5244C136.466 81.8844 135.908 82.0645 135.283 82.0645C134.645 82.0645 134.076 81.8844 133.574 81.5244C133.073 81.1598 132.681 80.6426 132.398 79.9727C132.12 79.2982 131.984 78.5143 131.988 77.6211C131.984 76.737 132.12 75.96 132.398 75.29C132.681 74.6201 133.073 74.1029 133.574 73.7383C134.076 73.3737 134.645 73.1914 135.283 73.1914ZM135.283 74.7637C134.96 74.7637 134.675 74.8753 134.429 75.0986C134.187 75.3174 134 75.641 133.868 76.0693C133.736 76.4977 133.67 77.015 133.67 77.6211C133.67 78.2318 133.736 78.7513 133.868 79.1797C134 79.6081 134.187 79.9316 134.429 80.1504C134.675 80.3691 134.96 80.4785 135.283 80.4785C135.602 80.4785 135.88 80.3691 136.117 80.1504C136.354 79.9271 136.539 79.6012 136.671 79.1729C136.803 78.7445 136.869 78.2272 136.869 77.6211C136.869 77.0195 136.803 76.5046 136.671 76.0762C136.539 75.6432 136.352 75.3174 136.11 75.0986C135.873 74.8753 135.598 74.7637 135.283 74.7637ZM153.863 79.4668H145.059V73.3555H153.768V74.7637H146.781V78.0723H153.863V79.4668ZM155.107 83.2402H143.719V81.8047H155.107V83.2402Z" fill="white"/>
<circle cx="151" cy="99.5" r="3" fill="#128CFF"/>
<circle cx="151" cy="99.5" r="3.5" stroke="white" stroke-opacity="0.5"/>
<circle cx="167" cy="99.5" r="3" fill="white"/>
<circle cx="167" cy="99.5" r="3.5" stroke="white" stroke-opacity="0.5"/>
<circle cx="183" cy="99.5" r="3" fill="white"/>
<circle cx="183" cy="99.5" r="3.5" stroke="white" stroke-opacity="0.5"/>
<circle cx="199" cy="99.5" r="3" fill="white"/>
<circle cx="199" cy="99.5" r="3.5" stroke="white" stroke-opacity="0.5"/>
<rect x="180.5" y="20" width="145" height="69" stroke="white"/>
<line x1="180.216" y1="19.0491" x2="326.216" y2="89.0491" stroke="white"/>
<line x1="326.216" y1="19.9509" x2="180.216" y2="89.9509" stroke="white"/>
<defs>
<linearGradient id="paint0_linear_1_483" x1="0" y1="57.5" x2="901" y2="57.5" gradientUnits="userSpaceOnUse">
<stop stop-color="#128CFF"/>
<stop offset="1" stop-color="#E7F3FF"/>
</linearGradient>
</defs>
</svg>
