<svg width="10" height="12" viewBox="0 0 10 12" fill="none" xmlns="http://www.w3.org/2000/svg">
<path d="M4.38742 9.74791L2.60602 7.96651L3.13662 7.43591L4.38742 8.68671L6.86322 6.19633L7.39382 6.72693L4.38742 9.74791ZM1.32943 11.3027C1.06685 11.3027 0.8449 11.2104 0.663581 11.0256C0.482261 10.8409 0.391602 10.6207 0.391602 10.3649V3.0239C0.391602 2.76813 0.482261 2.54788 0.663581 2.36316C0.8449 2.17844 1.06685 2.08608 1.32943 2.08608H2.60379V0.618774H3.38454V2.08608H6.63773V0.618774H7.39605V2.08608H8.67041C8.93299 2.08608 9.15494 2.17844 9.33626 2.36316C9.51758 2.54788 9.60824 2.76813 9.60824 3.0239V10.3649C9.60824 10.6207 9.51758 10.8409 9.33626 11.0256C9.15494 11.2104 8.93299 11.3027 8.67041 11.3027H1.32943ZM1.32943 10.5444H8.67041C8.71529 10.5444 8.75643 10.5257 8.79383 10.4883C8.83123 10.4509 8.84992 10.4098 8.84992 10.3649V5.4739H1.14992V10.3649C1.14992 10.4098 1.16862 10.4509 1.20601 10.4883C1.24341 10.5257 1.28455 10.5444 1.32943 10.5444ZM1.14992 4.71558H8.84992V3.0239C8.84992 2.97902 8.83123 2.93788 8.79383 2.90048C8.75643 2.86309 8.71529 2.8444 8.67041 2.8444H1.32943C1.28455 2.8444 1.24341 2.86309 1.20601 2.90048C1.16862 2.93788 1.14992 2.97902 1.14992 3.0239V4.71558Z" fill="#0083FE"/>
</svg>
