<svg width="96" height="96" viewBox="0 0 96 96" fill="none" xmlns="http://www.w3.org/2000/svg">
<g filter="url(#filter0_dd_560_1906)">
<circle cx="48" cy="48" r="35" fill="#E7F3FF"/>
</g>
<path d="M60.9341 61.272L55.1105 61.272L49.2869 61.272M34 62L42.0791 58.8926C42.5959 58.6939 42.8543 58.5945 43.096 58.4647C43.3107 58.3495 43.5154 58.2164 43.708 58.067C43.9247 57.8988 44.1205 57.7031 44.512 57.3116L60.9341 40.8894C62.5422 39.2812 62.2408 36.9758 60.6327 35.3676C59.0245 33.7595 56.7186 33.4576 55.1105 35.0657L38.6884 51.4879C38.2969 51.8795 38.1011 52.0752 37.9329 52.292C37.7835 52.4845 37.6505 52.6892 37.5353 52.9039C37.4055 53.1456 37.3061 53.404 37.1074 53.9208L34 62ZM34 62L36.9964 54.2094C37.2108 53.6519 37.318 53.3731 37.5019 53.2455C37.6626 53.1339 37.8615 53.0917 38.0536 53.1284C38.2735 53.1704 39.5776 52.2886 40 52.711L43.289 56C43.7113 56.4224 42.8296 57.7265 42.8716 57.9464C42.9083 58.1385 42.8661 58.3374 42.7545 58.4981C42.6268 58.682 42.3481 58.7892 41.7906 59.0036L34 62Z" stroke="url(#paint0_linear_560_1906)" stroke-width="5" stroke-linecap="round" stroke-linejoin="round"/>
<defs>
<filter id="filter0_dd_560_1906" x="0" y="0" width="96" height="96" filterUnits="userSpaceOnUse" color-interpolation-filters="sRGB">
<feFlood flood-opacity="0" result="BackgroundImageFix"/>
<feColorMatrix in="SourceAlpha" type="matrix" values="0 0 0 0 0 0 0 0 0 0 0 0 0 0 0 0 0 0 127 0" result="hardAlpha"/>
<feOffset dy="4"/>
<feGaussianBlur stdDeviation="2"/>
<feComposite in2="hardAlpha" operator="out"/>
<feColorMatrix type="matrix" values="0 0 0 0 0 0 0 0 0 0 0 0 0 0 0 0 0 0 0.15 0"/>
<feBlend mode="normal" in2="BackgroundImageFix" result="effect1_dropShadow_560_1906"/>
<feColorMatrix in="SourceAlpha" type="matrix" values="0 0 0 0 0 0 0 0 0 0 0 0 0 0 0 0 0 0 127 0" result="hardAlpha"/>
<feOffset/>
<feGaussianBlur stdDeviation="6.5"/>
<feComposite in2="hardAlpha" operator="out"/>
<feColorMatrix type="matrix" values="0 0 0 0 0.0705882 0 0 0 0 0.54902 0 0 0 0 1 0 0 0 0.5 0"/>
<feBlend mode="normal" in2="effect1_dropShadow_560_1906" result="effect2_dropShadow_560_1906"/>
<feBlend mode="normal" in="SourceGraphic" in2="effect2_dropShadow_560_1906" result="shape"/>
</filter>
<linearGradient id="paint0_linear_560_1906" x1="54" y1="38.5" x2="7" y2="90" gradientUnits="userSpaceOnUse">
<stop stop-color="#128CFF"/>
<stop offset="1" stop-color="#084454"/>
</linearGradient>
</defs>
</svg>
