<svg width="107" height="33" viewBox="0 0 107 33" fill="none" xmlns="http://www.w3.org/2000/svg">
<rect width="107" height="32" transform="translate(0 0.5)" fill="white"/>
<path d="M97.5285 28.5885C97.1697 28.5885 96.8512 28.5156 96.573 28.3698C96.3021 28.2352 96.0605 28.0389 95.8482 27.7809C95.6359 27.5117 95.4492 27.1977 95.2881 26.8387C95.1051 26.4237 94.944 25.9527 94.8049 25.4255C94.6658 24.8871 94.5487 24.3263 94.4535 23.743C94.3583 23.1486 94.2851 22.5429 94.2339 21.926C94.1899 21.2979 94.168 20.6922 94.168 20.1089C94.168 18.2246 94.4352 16.6263 94.9697 15.314C95.5041 13.9904 96.2472 12.981 97.199 12.2856C98.1581 11.5901 99.2746 11.2424 100.548 11.2424C101.156 11.2424 101.749 11.3209 102.328 11.478C102.906 11.6238 103.426 11.8593 103.887 12.1846C104.356 12.4987 104.729 12.8968 105.007 13.3791C105.285 13.8614 105.424 14.4391 105.424 15.1121C105.424 15.7514 105.34 16.2505 105.172 16.6094C105.004 16.9684 104.788 17.2207 104.524 17.3666C104.26 17.5011 103.986 17.5684 103.7 17.5684C103.261 17.5684 102.851 17.4899 102.47 17.3329C102.09 17.1759 101.647 17.0974 101.142 17.0974C100.563 17.0974 100.109 17.3553 99.7798 17.8713C99.4503 18.3872 99.2856 19.1612 99.2856 20.1931C99.2856 20.5856 99.2966 20.9726 99.3185 21.354C99.3478 21.7353 99.3807 22.1055 99.4174 22.4644C99.454 22.8121 99.4906 23.1542 99.5272 23.4907C99.5638 23.8159 99.5931 24.1244 99.615 24.416C99.6443 24.7076 99.659 24.9768 99.659 25.2236C99.659 26.3564 99.4869 27.2033 99.1428 27.7641C98.806 28.3137 98.2679 28.5885 97.5285 28.5885Z" fill="#082F54"/>
<path d="M87.2514 29.3495C85.9775 29.3495 84.8573 29.0467 83.8909 28.441C82.9245 27.8465 82.174 26.9324 81.6396 25.6986C81.1051 24.4536 80.8379 22.8833 80.8379 20.9878C80.8379 19.4287 81.0136 18.0603 81.365 16.8826C81.7165 15.6936 82.1997 14.701 82.8147 13.9046C83.4296 13.0971 84.1435 12.4914 84.9561 12.0876C85.7688 11.6726 86.6327 11.4651 87.5479 11.4651C88.1775 11.4651 88.7889 11.5492 89.3819 11.7175C89.9822 11.8857 90.524 12.1605 91.0072 12.5419C91.4977 12.912 91.8858 13.4111 92.1713 14.0392C92.4642 14.6674 92.6106 15.4301 92.6106 16.3274C92.6106 17.0676 92.5264 17.6902 92.358 18.1949C92.1896 18.6996 91.9553 19.1202 91.6551 19.4567C91.3623 19.782 91.0218 20.0512 90.6338 20.2643C90.2531 20.4774 89.8468 20.6569 89.4148 20.8027C89.1073 20.9597 88.723 21.1055 88.2617 21.2401C87.8005 21.3635 87.3392 21.4644 86.878 21.543C86.4241 21.6103 86.0397 21.6439 85.7249 21.6439C85.5052 21.6439 85.3478 21.6888 85.2527 21.7785C85.1648 21.857 85.1209 21.9972 85.1209 22.1991C85.1209 22.3786 85.1502 22.5749 85.2087 22.788C85.2746 22.9899 85.3661 23.1749 85.4833 23.3432C85.6663 23.6572 85.8896 23.8704 86.1532 23.9825C86.4167 24.0835 86.7352 24.1339 87.1086 24.1339C87.5698 24.1339 88.0384 24.0274 88.5143 23.8143C88.9975 23.5899 89.4844 23.3712 89.9749 23.1581C90.4654 22.945 90.956 22.8384 91.4465 22.8384C91.959 22.8384 92.3653 22.9843 92.6655 23.2759C92.973 23.5563 93.1267 24.1227 93.1267 24.9752C93.1267 25.693 92.9657 26.3267 92.6435 26.8763C92.3287 27.4259 91.8931 27.8858 91.3367 28.2559C90.7876 28.6261 90.1616 28.9009 89.4588 29.0803C88.7559 29.2598 88.0201 29.3495 87.2514 29.3495ZM86.6364 18.8342C86.9732 18.8342 87.3099 18.7725 87.6467 18.6491C87.9835 18.5146 88.2654 18.3014 88.4923 18.0098C88.7266 17.707 88.8438 17.32 88.8438 16.8489C88.8438 16.2769 88.701 15.8787 88.4155 15.6544C88.1299 15.4188 87.7712 15.3011 87.3392 15.3011C87.0757 15.3011 86.8121 15.374 86.5485 15.5198C86.2923 15.6544 86.058 15.8451 85.8457 16.0918C85.6407 16.3386 85.476 16.6246 85.3515 16.9499C85.227 17.2639 85.1648 17.6004 85.1648 17.9593C85.1648 18.2173 85.216 18.4136 85.3185 18.5482C85.4284 18.6716 85.5931 18.7501 85.8127 18.7837C86.0324 18.8174 86.3069 18.8342 86.6364 18.8342Z" fill="#082F54"/>
<path fill-rule="evenodd" clip-rule="evenodd" d="M74.2474 28.0684C74.5989 28.4161 75.0894 28.5899 75.719 28.5899C76.2974 28.5899 76.7879 28.4273 77.1906 28.102C77.6006 27.7768 77.9374 27.2832 78.201 26.6215C78.2961 26.3747 78.3803 26.0607 78.4535 25.6793C78.5341 25.2979 78.6073 24.8829 78.6732 24.4343C78.7391 23.9744 78.794 23.4921 78.8379 22.9874C78.8892 22.4714 78.9294 21.9611 78.9587 21.4564C78.9953 20.9404 79.0209 20.4413 79.0356 19.959C79.0502 19.4655 79.0576 19.0168 79.0576 18.613C79.0576 17.2334 78.8855 16.1454 78.5414 15.3491C78.1973 14.5415 77.6592 14.1377 76.927 14.1377C76.1363 14.1377 75.4884 14.3957 74.9832 14.9116C74.4854 15.4276 74.1083 16.1735 73.8521 17.1493C73.8008 17.4073 73.7496 17.7101 73.6983 18.0578C73.6544 18.3943 73.6142 18.7644 73.5775 19.1682C73.5409 19.572 73.5043 19.9926 73.4677 20.4301C73.4384 20.8563 73.4128 21.2881 73.3909 21.7255C73.3762 22.1518 73.3616 22.5724 73.3469 22.9874C73.3396 23.4024 73.3359 23.7837 73.3359 24.1314C73.3359 25.0961 73.4018 25.9092 73.5336 26.571C73.6654 27.2328 73.9033 27.7319 74.2474 28.0684Z" fill="#082F54"/>
<path d="M68.0129 28.3694C67.3906 28.3694 66.8012 28.2404 66.2448 27.9825C65.6884 27.7245 65.2345 27.3039 64.8831 26.7206C64.5316 26.1262 64.3449 25.3242 64.323 24.3147C64.3157 24.0568 64.3083 23.7763 64.301 23.4735C64.301 23.1594 64.2974 22.8398 64.29 22.5145C64.29 22.178 64.29 21.8471 64.29 21.5219C64.29 21.1854 64.29 20.8545 64.29 20.5292C64.29 20.1927 64.29 19.8731 64.29 19.5702C64.29 19.0767 64.2058 18.757 64.0375 18.6112C63.8691 18.4542 63.6494 18.3589 63.3785 18.3252C63.2321 18.3028 63.071 18.2803 62.8953 18.2579C62.7269 18.2355 62.5512 18.213 62.3682 18.1906C62.1925 18.157 62.0094 18.1289 61.8191 18.1065C61.4384 18.028 61.1346 17.7812 60.9076 17.3662C60.6879 16.94 60.5781 16.3511 60.5781 15.5996C60.5781 15.0725 60.644 14.6687 60.7758 14.3883C60.9076 14.0967 61.0833 13.8835 61.3029 13.7489C61.5299 13.6144 61.7715 13.5022 62.0277 13.4125C62.3499 13.3339 62.6354 13.261 62.8843 13.1937C63.1406 13.1152 63.3675 13.0423 63.5652 12.975C63.7702 12.9077 63.935 12.8012 64.0594 12.6554C64.1912 12.5095 64.2717 12.2516 64.301 11.8814C64.3303 11.6235 64.3559 11.3655 64.3779 11.1075C64.3999 10.8495 64.4218 10.5972 64.4438 10.3504C64.4731 10.1036 64.506 9.88492 64.5426 9.69424C64.689 9.0437 64.8867 8.57822 65.1357 8.29781C65.3846 8.0174 65.7726 7.8772 66.2997 7.8772C66.7171 7.8772 67.0465 7.95571 67.2881 8.11274C67.537 8.25855 67.7274 8.4941 67.8592 8.81937C67.9983 9.13343 68.1118 9.55404 68.1996 10.0812C68.2289 10.3504 68.2545 10.5859 68.2765 10.7878C68.2985 10.9897 68.3168 11.1804 68.3314 11.3599C68.3534 11.5393 68.3717 11.7188 68.3863 11.8983C68.401 12.0665 68.4193 12.2572 68.4412 12.4703C68.4705 12.8068 68.562 13.0648 68.7158 13.2442C68.8695 13.4125 69.0562 13.5246 69.2759 13.5807C69.4662 13.6256 69.6492 13.6704 69.825 13.7153C70.0007 13.7489 70.1727 13.7826 70.3411 13.8162C70.5168 13.8499 70.6852 13.8835 70.8463 13.9172C71.2197 13.9957 71.5565 14.1976 71.8566 14.5229C72.1641 14.8369 72.3179 15.3697 72.3179 16.1212C72.3179 16.7717 72.1934 17.3045 71.9445 17.7195C71.6956 18.1233 71.3807 18.3589 71 18.4262C70.6706 18.4598 70.3521 18.4878 70.0446 18.5103C69.7371 18.5327 69.4882 18.5608 69.2978 18.5944C69.1368 18.6168 68.9903 18.701 68.8585 18.8468C68.7268 18.9814 68.6462 19.2618 68.6169 19.688C68.6169 19.9235 68.6133 20.1647 68.606 20.4114C68.5986 20.6582 68.595 20.905 68.595 21.1517C68.6023 21.3985 68.606 21.6396 68.606 21.8752C68.606 22.1107 68.6096 22.3407 68.6169 22.565C68.6243 22.7893 68.6352 22.9968 68.6499 23.1875C68.6718 23.6025 68.7451 23.9053 68.8695 24.096C68.994 24.2867 69.2136 24.382 69.5284 24.382C69.7554 24.382 69.9458 24.3147 70.0995 24.1801C70.2606 24.0343 70.4107 23.8997 70.5498 23.7763C70.6962 23.6418 70.8573 23.5745 71.033 23.5745C71.3258 23.5745 71.5345 23.6922 71.6589 23.9278C71.7907 24.1633 71.8566 24.511 71.8566 24.9709C71.8566 25.4981 71.7395 25.9748 71.5052 26.401C71.2709 26.816 70.9634 27.1693 70.5827 27.4609C70.2093 27.7525 69.7957 27.9769 69.3418 28.1339C68.8952 28.2909 68.4522 28.3694 68.0129 28.3694Z" fill="#082F54"/>
<path d="M52.7465 30.0718C52.1242 30.0718 51.5129 29.9821 50.9126 29.8027C50.3122 29.6344 49.7704 29.3428 49.2872 28.9278C48.8113 28.524 48.4306 27.98 48.1451 27.2958C47.8596 26.6116 47.7168 25.7648 47.7168 24.7553C47.7168 23.7571 47.8815 22.927 48.211 22.2653C48.5478 21.6035 48.998 21.0764 49.5618 20.6838C50.1255 20.2912 50.7625 20.0164 51.4726 19.8594C52.1901 19.6911 52.9296 19.607 53.691 19.607C53.8814 19.607 54.0717 19.6182 54.2621 19.6407C54.4524 19.6519 54.6281 19.6687 54.7892 19.6911C54.9503 19.7023 55.0784 19.708 55.1736 19.708C55.342 19.708 55.4554 19.6687 55.514 19.5902C55.5799 19.5005 55.6128 19.3546 55.6128 19.1527C55.6128 18.9396 55.5945 18.749 55.5579 18.5807C55.5213 18.4125 55.4701 18.2611 55.4042 18.1265C55.3383 17.9919 55.2578 17.8797 55.1626 17.79C54.9869 17.5993 54.7636 17.4591 54.4927 17.3694C54.2218 17.2796 53.9253 17.2348 53.6031 17.2348C53.1931 17.2348 52.7868 17.3021 52.3841 17.4367C51.9815 17.5712 51.5825 17.7058 51.1871 17.8404C50.7991 17.975 50.4074 18.0423 50.012 18.0423C49.3385 18.0423 48.815 17.8741 48.4416 17.5376C48.0682 17.1899 47.8815 16.6571 47.8815 15.9393C47.8815 15.2663 48.0316 14.6774 48.3318 14.1727C48.632 13.6567 49.0383 13.2361 49.5508 12.9109C50.0633 12.5744 50.638 12.3276 51.275 12.1706C51.9192 12.0023 52.5782 11.9182 53.2517 11.9182C54.6501 11.9182 55.8288 12.1425 56.7879 12.5912C57.747 13.0398 58.4755 13.8138 58.9733 14.913C59.4785 16.001 59.7311 17.5096 59.7311 19.4388C59.7311 19.865 59.7164 20.2407 59.6872 20.566C59.6652 20.8913 59.6359 21.1773 59.5993 21.4241C59.57 21.6596 59.5407 21.8727 59.5114 22.0634C59.4895 22.2541 59.4785 22.4335 59.4785 22.6018C59.4785 22.9158 59.5481 23.2243 59.6872 23.5271C59.8336 23.83 59.9983 24.144 60.1814 24.4693C60.3717 24.7946 60.5364 25.1479 60.6755 25.5292C60.8146 25.9106 60.8842 26.3424 60.8842 26.8247C60.8842 27.5314 60.7341 28.0529 60.4339 28.3894C60.1411 28.7259 59.8006 28.8941 59.4126 28.8941C59.1051 28.8941 58.8599 28.7764 58.6768 28.5408C58.4938 28.3053 58.3364 28.0697 58.2046 27.8342C58.0728 27.5986 57.9264 27.4809 57.7653 27.4809C57.6482 27.4809 57.5164 27.537 57.37 27.6491C57.2309 27.7613 57.0661 27.9183 56.8758 28.1202C56.6488 28.3558 56.3523 28.6249 55.9862 28.9278C55.6275 29.2418 55.1845 29.511 54.6574 29.7354C54.1303 29.9597 53.4933 30.0718 52.7465 30.0718ZM53.1199 25.933C53.3908 25.933 53.6581 25.8769 53.9216 25.7648C54.1852 25.6414 54.4268 25.4732 54.6464 25.26C54.8661 25.0357 55.0418 24.7721 55.1736 24.4693C55.3053 24.1664 55.3712 23.83 55.3712 23.4598C55.3712 23.1794 55.3127 22.9719 55.1955 22.8373C55.0784 22.7027 54.9063 22.6074 54.6794 22.5513C54.4597 22.4952 54.1888 22.4672 53.8667 22.4672C53.5006 22.4672 53.1492 22.5289 52.8124 22.6522C52.4757 22.7644 52.1974 22.9607 51.9778 23.2411C51.7655 23.5215 51.6593 23.9085 51.6593 24.402C51.6593 24.7609 51.7216 25.0525 51.846 25.2769C51.9778 25.5012 52.1535 25.6694 52.3732 25.7816C52.5928 25.8826 52.8417 25.933 53.1199 25.933Z" fill="#082F54"/>
<path d="M41.7367 29.248C40.4628 29.248 39.3426 28.9451 38.3762 28.3394C37.4098 27.745 36.6594 26.8308 36.1249 25.5971C35.5905 24.352 35.3232 22.7818 35.3232 20.8862C35.3232 19.3271 35.499 17.9587 35.8504 16.781C36.2018 15.5921 36.685 14.5994 37.3 13.8031C37.915 12.9955 38.6288 12.3898 39.4415 11.986C40.2542 11.571 41.1181 11.3635 42.0332 11.3635C42.6629 11.3635 43.2742 11.4476 43.8672 11.6159C44.4676 11.7841 45.0094 12.0589 45.4926 12.4403C45.9831 12.8104 46.3711 13.3096 46.6566 13.9377C46.9495 14.5658 47.0959 15.3285 47.0959 16.2258C47.0959 16.9661 47.0117 17.5886 46.8433 18.0933C46.675 18.5981 46.4407 19.0187 46.1405 19.3552C45.8476 19.6804 45.5072 19.9496 45.1192 20.1627C44.7385 20.3758 44.3321 20.5553 43.9002 20.7011C43.5927 20.8582 43.2083 21.004 42.7471 21.1386C42.2858 21.2619 41.8246 21.3629 41.3633 21.4414C40.9094 21.5087 40.525 21.5423 40.2102 21.5423C39.9906 21.5423 39.8332 21.5872 39.738 21.6769C39.6501 21.7555 39.6062 21.8957 39.6062 22.0976C39.6062 22.277 39.6355 22.4733 39.6941 22.6864C39.76 22.8883 39.8515 23.0734 39.9686 23.2416C40.1517 23.5557 40.375 23.7688 40.6385 23.881C40.9021 23.9819 41.2206 24.0324 41.594 24.0324C42.0552 24.0324 42.5238 23.9258 42.9996 23.7127C43.4829 23.4884 43.9697 23.2697 44.4603 23.0566C44.9508 22.8434 45.4413 22.7369 45.9318 22.7369C46.4443 22.7369 46.8507 22.8827 47.1508 23.1743C47.4583 23.4547 47.6121 24.0212 47.6121 24.8736C47.6121 25.5914 47.451 26.2252 47.1289 26.7748C46.8141 27.3244 46.3784 27.7842 45.822 28.1544C45.2729 28.5245 44.6469 28.7993 43.9441 28.9788C43.2413 29.1582 42.5055 29.248 41.7367 29.248ZM41.1217 18.7327C41.4585 18.7327 41.7953 18.671 42.1321 18.5476C42.4689 18.413 42.7507 18.1999 42.9777 17.9083C43.212 17.6054 43.3291 17.2185 43.3291 16.7474C43.3291 16.1753 43.1863 15.7772 42.9008 15.5528C42.6153 15.3173 42.2565 15.1995 41.8246 15.1995C41.561 15.1995 41.2974 15.2724 41.0339 15.4182C40.7776 15.5528 40.5433 15.7435 40.331 15.9903C40.126 16.237 39.9613 16.523 39.8368 16.8483C39.7124 17.1624 39.6501 17.4989 39.6501 17.8578C39.6501 18.1158 39.7014 18.312 39.8039 18.4466C39.9137 18.57 40.0784 18.6485 40.2981 18.6822C40.5177 18.7158 40.7923 18.7327 41.1217 18.7327Z" fill="#082F54"/>
<path d="M19.3235 28.1322C18.584 28.1322 17.9544 27.8798 17.4346 27.3751C16.9221 26.8704 16.4864 26.2142 16.1277 25.4066C15.974 25.0477 15.8312 24.6103 15.6994 24.0943C15.5749 23.5672 15.4651 22.9951 15.3699 22.3782C15.2748 21.7613 15.1942 21.1332 15.1283 20.4939C15.0624 19.8433 15.0112 19.204 14.9746 18.5759C14.9453 17.9478 14.9307 17.3645 14.9307 16.8261C14.9307 15.884 15.0185 15.0371 15.1942 14.2856C15.3699 13.5229 15.6372 12.9229 15.9959 12.4854C16.3547 12.0368 16.8049 11.8124 17.3467 11.8124C17.8885 11.8124 18.2875 12.0031 18.5437 12.3845C18.8073 12.7658 19.0086 13.2762 19.1477 13.9155C19.199 14.1735 19.2429 14.4707 19.2795 14.8072C19.3235 15.1325 19.3674 15.4746 19.4113 15.8335C19.4552 16.1812 19.4992 16.5345 19.5431 16.8934C19.587 17.2411 19.6273 17.5664 19.6639 17.8693C19.7078 18.1721 19.7444 18.4301 19.7737 18.6432C19.8396 19.0245 19.9311 19.3498 20.0483 19.619C20.1654 19.8882 20.3118 20.0228 20.4875 20.0228C20.6413 20.0228 20.7694 19.8826 20.8719 19.6022C20.9817 19.3106 21.0696 18.9685 21.1355 18.5759C21.1941 18.2394 21.2526 17.8693 21.3112 17.4655C21.3698 17.0617 21.432 16.6467 21.4979 16.2205C21.5711 15.7942 21.648 15.3792 21.7285 14.9754C21.8164 14.5604 21.9079 14.1791 22.0031 13.8314C22.1861 13.3042 22.446 12.8612 22.7828 12.5022C23.1196 12.1321 23.6101 11.947 24.2544 11.947C24.8254 11.947 25.2647 12.0928 25.5722 12.3845C25.8797 12.6761 26.114 13.0462 26.2751 13.4949C26.3483 13.7192 26.4215 13.994 26.4947 14.3193C26.5679 14.6446 26.6375 14.9923 26.7034 15.3624C26.7766 15.7213 26.8425 16.0859 26.901 16.456C26.9669 16.8149 27.0218 17.157 27.0658 17.4823C27.117 17.7964 27.1609 18.0655 27.1975 18.2899C27.2708 18.7273 27.3513 19.1031 27.4391 19.4171C27.5343 19.72 27.6588 19.8714 27.8125 19.8714C28.0029 19.8714 28.1493 19.7312 28.2518 19.4508C28.3543 19.1704 28.4495 18.8114 28.5373 18.374C28.5886 18.116 28.6435 17.7964 28.7021 17.415C28.768 17.0224 28.8302 16.6074 28.8888 16.17C28.9547 15.7213 29.0206 15.2783 29.0864 14.8408C29.1597 14.4034 29.2329 14.0052 29.3061 13.6463C29.4818 13.0743 29.7124 12.62 29.9979 12.2835C30.2908 11.9358 30.6935 11.762 31.206 11.762C31.5574 11.762 31.8942 11.8573 32.2163 12.048C32.5384 12.2274 32.8276 12.5191 33.0839 12.9229C33.3401 13.3266 33.5415 13.8706 33.6879 14.5548C33.8343 15.2278 33.9075 16.0634 33.9075 17.0617C33.9075 17.5664 33.8892 18.088 33.8526 18.6264C33.816 19.1647 33.7648 19.7087 33.6989 20.2583C33.633 20.8079 33.5524 21.3463 33.4573 21.8735C33.3621 22.4007 33.2559 22.8998 33.1388 23.3709C33.0217 23.842 32.8972 24.2794 32.7654 24.6832C32.6336 25.0758 32.4982 25.4122 32.3591 25.6926C31.9418 26.4554 31.4402 27.0442 30.8545 27.4592C30.2762 27.863 29.6209 28.0649 28.8888 28.0649C28.1859 28.0649 27.5709 27.8069 27.0438 27.291C26.524 26.775 26.1433 26.1806 25.9017 25.5076C25.8065 25.1374 25.715 24.7393 25.6271 24.313C25.5393 23.8868 25.4587 23.4606 25.3855 23.0344C25.3123 22.6082 25.2427 22.2044 25.1769 21.823C25.111 21.4304 25.0561 21.0827 25.0121 20.7799C24.9536 20.3312 24.8767 19.9555 24.7815 19.6527C24.6936 19.3498 24.5399 19.1984 24.3203 19.1984C24.0787 19.1984 23.8993 19.3722 23.7821 19.72C23.6723 20.0677 23.5845 20.449 23.5186 20.864C23.482 21.0883 23.438 21.3631 23.3868 21.6884C23.3429 22.0025 23.2916 22.339 23.233 22.6979C23.1818 23.0456 23.1232 23.3989 23.0573 23.7578C22.9988 24.1168 22.9365 24.4589 22.8706 24.7841C22.8047 25.0982 22.7352 25.373 22.662 25.6085C22.4204 26.2815 21.9957 26.8704 21.3881 27.3751C20.7804 27.8798 20.0922 28.1322 19.3235 28.1322Z" fill="#082F54"/>
<path d="M7.07815 28.7755C6.41191 28.7755 5.75299 28.7138 5.10139 28.5904C4.45711 28.4783 3.86775 28.2876 3.33329 28.0184C2.79883 27.7492 2.37054 27.3847 2.0484 26.9248C1.73358 26.4649 1.57617 25.8929 1.57617 25.2087C1.57617 24.5133 1.67867 23.9749 1.88367 23.5936C2.08866 23.201 2.36321 22.9318 2.70732 22.786C3.05142 22.629 3.42481 22.5504 3.82748 22.5504C3.92266 22.5504 4.06176 22.5841 4.24479 22.6514C4.43515 22.7187 4.65113 22.7916 4.89273 22.8701C5.13434 22.9486 5.38692 22.9879 5.65049 22.9879C6.0312 22.9879 6.36798 22.9654 6.66083 22.9206C6.95368 22.8757 7.20261 22.7972 7.40761 22.685C7.6126 22.5617 7.76635 22.3878 7.86885 22.1635C7.97867 21.9391 8.03358 21.6531 8.03358 21.3054C8.03358 21.0138 7.97501 20.7558 7.85787 20.5315C7.74805 20.3072 7.59064 20.0997 7.38564 19.909C7.18064 19.7071 6.93904 19.522 6.66083 19.3538C6.38994 19.1855 6.08977 19.0061 5.76031 18.8154C5.26246 18.5462 4.79023 18.2321 4.34363 17.8732C3.90435 17.5143 3.51632 17.1049 3.17954 16.645C2.84276 16.1852 2.57553 15.6636 2.37786 15.0804C2.1875 14.4859 2.09233 13.8297 2.09233 13.1119C2.09233 12.2146 2.23509 11.4238 2.52062 10.7396C2.81348 10.0554 3.20517 9.47219 3.6957 8.98989C4.18622 8.50759 4.73898 8.12062 5.35397 7.829C5.96897 7.52616 6.60226 7.30744 7.25386 7.17284C7.90546 7.03825 8.53143 6.97095 9.13178 6.97095C9.69552 6.97095 10.2336 7.02142 10.7461 7.12237C11.2659 7.22332 11.7345 7.39156 12.1518 7.6271C12.5691 7.85143 12.8986 8.14866 13.1402 8.5188C13.3818 8.87773 13.5026 9.32077 13.5026 9.84794C13.5026 10.4536 13.4074 10.9471 13.2171 11.3285C13.034 11.6986 12.7924 11.9734 12.4923 12.1529C12.1921 12.3324 11.8736 12.4221 11.5368 12.4221C11.3831 12.4221 11.2257 12.3828 11.0646 12.3043C10.9035 12.2258 10.7205 12.1473 10.5155 12.0688C10.3178 11.9903 10.0689 11.951 9.76873 11.951C9.56374 11.951 9.3624 11.9734 9.16472 12.0183C8.97437 12.0632 8.80232 12.1361 8.64857 12.237C8.49482 12.338 8.37036 12.4838 8.27518 12.6745C8.18733 12.8539 8.1434 13.0839 8.1434 13.3643C8.1434 13.6671 8.20197 13.9419 8.31911 14.1887C8.43625 14.4354 8.59732 14.6597 8.80232 14.8616C9.00732 15.0635 9.24892 15.2598 9.52713 15.4505C9.81266 15.63 10.1238 15.8206 10.4606 16.0225C10.9218 16.2917 11.3794 16.6226 11.8333 17.0152C12.2946 17.4077 12.7119 17.8676 13.0853 18.3948C13.4587 18.9107 13.7552 19.5052 13.9748 20.1782C14.2018 20.8512 14.3153 21.6027 14.3153 22.4327C14.3153 23.5655 14.1176 24.5357 13.7222 25.3433C13.3269 26.1509 12.7888 26.807 12.1079 27.3118C11.427 27.8165 10.6546 28.1866 9.7907 28.4222C8.92678 28.6577 8.0226 28.7755 7.07815 28.7755Z" fill="#082F54"/>
<path fill-rule="evenodd" clip-rule="evenodd" d="M72.7101 5.5489C72.506 6.78624 72.2291 9.43798 73.2091 11.1572L73.2181 11.1728L73.2194 11.1751C74.0001 12.5245 75.7267 12.9865 77.0771 12.2069C78.4275 11.4272 78.8907 9.70093 78.1124 8.35009L73.2091 11.1572L78.1117 8.3489L78.1028 8.33353C77.1044 6.62443 74.6686 5.53793 73.4946 5.09597C73.1428 4.9635 72.7714 5.17794 72.7101 5.5489ZM75.5556 11.4548C75.7808 11.3248 75.8579 11.0368 75.7279 10.8116C75.5979 10.5865 75.3099 10.5093 75.0847 10.6393C74.8595 10.7693 74.7824 11.0573 74.9124 11.2825C75.0424 11.5077 75.3304 11.5848 75.5556 11.4548Z" fill="#74B1EA"/>
<path fill-rule="evenodd" clip-rule="evenodd" d="M79.2007 9.21274C79.2525 9.90746 78.9848 10.527 79.3223 11.0115L79.3272 11.018L79.3279 11.0189C79.7542 11.5813 80.5556 11.6921 81.1185 11.2662C81.6814 10.8403 81.7927 10.039 81.3674 9.47585L81.3621 9.46895C80.8179 8.75721 79.6629 8.40568 79.1109 8.27294C78.9454 8.23316 79.2074 9.04268 79.2007 9.21274ZM80.3929 11.0137C80.4868 10.9427 80.5053 10.809 80.4343 10.7151C80.3632 10.6213 80.2296 10.6027 80.1357 10.6738C80.0418 10.7448 80.0233 10.8784 80.0943 10.9723C80.1654 11.0662 80.299 11.0847 80.3929 11.0137Z" fill="#74B1EA"/>
</svg>
